<?xml version="1.0" encoding="UTF-8" ?>
<svg width="1440" height="1472" viewBox="0 0 1440 1472" fill="none" xmlns="http://www.w3.org/2000/svg">
<g clip-path="url(#clip0)">
<path opacity="0.24" fill-rule="evenodd" clip-rule="evenodd" d="M108.283 170.456C108.283 50.3585 198.561 -47 309.924 -47C421.288 -47 511.565 50.3585 511.565 170.456C511.565 290.554 421.288 387.913 309.924 387.913H108.283V170.456ZM1227.39 1044.63V1479.54C1227.39 1599.64 1137.11 1697 1025.75 1697V1479.54H824.11V1044.63C824.11 924.533 914.387 827.175 1025.75 827.175H1227.39V1044.63ZM108.283 605.369V1040.28C108.283 1160.38 18.0049 1257.74 -93.3586 1257.74V1040.28H-295V605.369C-295 485.271 -204.722 387.913 -93.3586 387.913H108.283V605.369ZM1227.39 609.718C1227.39 489.62 1317.67 392.262 1429.03 392.262C1540.4 392.262 1630.68 489.62 1630.68 609.718C1630.68 729.816 1540.4 827.175 1429.03 827.175H1227.39V609.718Z" fill="#4D0032" fill-opacity="0.1"/>
</g>
<defs>
<clipPath id="clip0">
<rect width="1440" height="2183" fill="white"/>
</clipPath>
</defs>
</svg>
