<?xml version="1.0" encoding="UTF-8" ?>
<svg width="284" height="200" viewBox="0 0 284 200" fill="none" xmlns="http://www.w3.org/2000/svg">
<mask id="mask0" mask-type="alpha" maskUnits="userSpaceOnUse" x="0" y="0" width="284" height="200">
<path d="M0 4C0 1.79086 1.79086 0 4 0H280C282.209 0 284 1.79086 284 4V196C284 198.209 282.209 200 280 200H4C1.79086 200 0 198.209 0 196V4Z" fill="white"/>
</mask>
<g mask="url(#mask0)">
<path d="M4 -0.5C1.51472 -0.5 -0.5 1.51471 -0.5 4V196C-0.5 198.485 1.51472 200.5 4 200.5H280C282.485 200.5 284.5 198.485 284.5 196V4C284.5 1.51472 282.485 -0.5 280 -0.5H4Z" fill="white" stroke="black"/>
<mask id="path-3-outside-1" maskUnits="userSpaceOnUse" x="183" y="54" width="157" height="166" fill="black">
<rect fill="white" x="183" y="54" width="157" height="166"/>
<path d="M330.618 62.5452H288.547C287.461 60.2851 285.758 58.3779 283.635 57.043C281.512 55.7082 279.055 55 276.547 55C274.04 55 271.583 55.7082 269.46 57.043C267.337 58.3779 265.634 60.2851 264.548 62.5452H222.478C220.281 62.5476 218.174 63.4217 216.621 64.9756C215.067 66.5295 214.194 68.6364 214.192 70.8338V128.375C205.1 134.411 195.484 139.618 185.46 143.933L185.21 144.04C184.851 144.194 184.545 144.451 184.33 144.777C184.115 145.104 184 145.486 184 145.877V173.349C184 187.405 190.726 199.758 203.45 209.071C209.308 213.349 215.805 216.673 222.702 218.92C223.062 219.025 223.445 219.027 223.806 218.925C230.456 216.836 236.767 213.793 242.543 209.891H330.618C332.815 209.889 334.921 209.015 336.475 207.461C338.028 205.908 338.902 203.801 338.904 201.604V70.8338C338.903 68.6364 338.029 66.5295 336.475 64.9756C334.922 63.4217 332.815 62.5476 330.618 62.5452ZM267.231 73.9757V68.3175C267.22 67.0874 267.454 65.8674 267.917 64.7279C268.381 63.5885 269.065 62.5521 269.932 61.6786C270.798 60.805 271.828 60.1117 272.964 59.6385C274.099 59.1654 275.317 58.9218 276.547 58.9218C277.778 58.9218 278.995 59.1654 280.131 59.6385C281.266 60.1117 282.297 60.805 283.163 61.6786C284.029 62.5521 284.714 63.5885 285.177 64.7279C285.641 65.8674 285.874 67.0874 285.864 68.3175V73.9757C285.864 74.5061 286.075 75.0148 286.45 75.3899C286.825 75.765 287.333 75.9757 287.864 75.9757H306.611V87.0649H246.483V75.9757H265.231C265.761 75.9757 266.27 75.765 266.645 75.3899C267.02 75.0148 267.231 74.5061 267.231 73.9757ZM310.612 89.0648V83.8599H319.178C319.481 83.8603 319.772 83.9809 319.987 84.1954C320.201 84.4099 320.321 84.7006 320.322 85.0039V170.512H310.278C308.081 170.514 305.974 171.388 304.421 172.942C302.867 174.495 301.993 176.602 301.991 178.799V188.576H260.862C262.848 183.746 263.86 178.571 263.841 173.348V145.876C263.841 145.485 263.726 145.102 263.511 144.776C263.296 144.449 262.99 144.193 262.631 144.038L262.382 143.931C252.034 139.477 242.122 134.072 232.772 127.786V85.0039C232.773 84.7006 232.893 84.4099 233.108 84.1954C233.322 83.9809 233.613 83.8603 233.916 83.8599H242.483V89.0648C242.483 89.5953 242.693 90.104 243.068 90.479C243.443 90.8541 243.952 91.0648 244.482 91.0648H308.612C309.142 91.0648 309.651 90.8541 310.026 90.479C310.401 90.104 310.612 89.5953 310.612 89.0648ZM317.572 174.512L305.991 186.093V178.799C305.992 177.662 306.444 176.573 307.248 175.769C308.052 174.965 309.141 174.513 310.278 174.512L317.572 174.512ZM218.192 70.8338C218.193 69.6972 218.645 68.6075 219.448 67.8038C220.252 67.0001 221.342 66.5481 222.478 66.5468H263.352C263.272 67.1342 263.232 67.7263 263.231 68.3191V71.9757H244.483C243.953 71.9757 243.444 72.1865 243.069 72.5615C242.694 72.9366 242.484 73.4453 242.484 73.9757V79.86H233.917C232.553 79.8616 231.246 80.4041 230.282 81.3685C229.317 82.3328 228.775 83.6402 228.773 85.0039V125.019C227.546 124.146 226.329 123.258 225.121 122.356C224.775 122.097 224.354 121.956 223.921 121.956C223.489 121.956 223.068 122.097 222.721 122.356C221.229 123.476 219.72 124.571 218.193 125.644L218.192 70.8338ZM223.272 214.904C217.036 212.763 211.152 209.709 205.813 205.842C193.993 197.191 188 186.258 188 173.347V147.189C200.709 141.636 212.757 134.679 223.921 126.449C235.084 134.679 247.132 141.636 259.841 147.189V173.347C259.841 186.21 253.667 197.114 241.49 205.757C235.894 209.675 229.757 212.756 223.272 214.904ZM334.904 201.604C334.903 202.74 334.451 203.83 333.647 204.634C332.844 205.438 331.754 205.89 330.618 205.891H247.839C252.57 201.891 256.288 197.425 258.945 192.576H302.774C303.027 192.574 303.28 192.556 303.531 192.521C303.882 192.605 304.25 192.592 304.594 192.484C304.938 192.375 305.246 192.174 305.485 191.903C305.989 191.633 306.451 191.29 306.855 190.885L322.632 175.109C323.17 174.574 323.596 173.938 323.886 173.237C324.176 172.537 324.325 171.785 324.323 171.027V85.0039C324.321 83.6402 323.779 82.3328 322.814 81.3685C321.85 80.4041 320.543 79.8616 319.179 79.86H310.613V73.9757C310.613 73.4453 310.402 72.9366 310.027 72.5615C309.652 72.1865 309.143 71.9757 308.613 71.9757H289.865V68.3175C289.863 67.7246 289.823 67.1326 289.743 66.5452H330.618C331.754 66.5467 332.844 66.9991 333.648 67.8031C334.451 68.6071 334.903 69.6971 334.904 70.8338L334.904 201.604Z"/>
</mask>
<path d="M330.618 62.5452H288.547C287.461 60.2851 285.758 58.3779 283.635 57.043C281.512 55.7082 279.055 55 276.547 55C274.04 55 271.583 55.7082 269.46 57.043C267.337 58.3779 265.634 60.2851 264.548 62.5452H222.478C220.281 62.5476 218.174 63.4217 216.621 64.9756C215.067 66.5295 214.194 68.6364 214.192 70.8338V128.375C205.1 134.411 195.484 139.618 185.46 143.933L185.21 144.04C184.851 144.194 184.545 144.451 184.33 144.777C184.115 145.104 184 145.486 184 145.877V173.349C184 187.405 190.726 199.758 203.45 209.071C209.308 213.349 215.805 216.673 222.702 218.92C223.062 219.025 223.445 219.027 223.806 218.925C230.456 216.836 236.767 213.793 242.543 209.891H330.618C332.815 209.889 334.921 209.015 336.475 207.461C338.028 205.908 338.902 203.801 338.904 201.604V70.8338C338.903 68.6364 338.029 66.5295 336.475 64.9756C334.922 63.4217 332.815 62.5476 330.618 62.5452ZM267.231 73.9757V68.3175C267.22 67.0874 267.454 65.8674 267.917 64.7279C268.381 63.5885 269.065 62.5521 269.932 61.6786C270.798 60.805 271.828 60.1117 272.964 59.6385C274.099 59.1654 275.317 58.9218 276.547 58.9218C277.778 58.9218 278.995 59.1654 280.131 59.6385C281.266 60.1117 282.297 60.805 283.163 61.6786C284.029 62.5521 284.714 63.5885 285.177 64.7279C285.641 65.8674 285.874 67.0874 285.864 68.3175V73.9757C285.864 74.5061 286.075 75.0148 286.45 75.3899C286.825 75.765 287.333 75.9757 287.864 75.9757H306.611V87.0649H246.483V75.9757H265.231C265.761 75.9757 266.27 75.765 266.645 75.3899C267.02 75.0148 267.231 74.5061 267.231 73.9757ZM310.612 89.0648V83.8599H319.178C319.481 83.8603 319.772 83.9809 319.987 84.1954C320.201 84.4099 320.321 84.7006 320.322 85.0039V170.512H310.278C308.081 170.514 305.974 171.388 304.421 172.942C302.867 174.495 301.993 176.602 301.991 178.799V188.576H260.862C262.848 183.746 263.86 178.571 263.841 173.348V145.876C263.841 145.485 263.726 145.102 263.511 144.776C263.296 144.449 262.99 144.193 262.631 144.038L262.382 143.931C252.034 139.477 242.122 134.072 232.772 127.786V85.0039C232.773 84.7006 232.893 84.4099 233.108 84.1954C233.322 83.9809 233.613 83.8603 233.916 83.8599H242.483V89.0648C242.483 89.5953 242.693 90.104 243.068 90.479C243.443 90.8541 243.952 91.0648 244.482 91.0648H308.612C309.142 91.0648 309.651 90.8541 310.026 90.479C310.401 90.104 310.612 89.5953 310.612 89.0648ZM317.572 174.512L305.991 186.093V178.799C305.992 177.662 306.444 176.573 307.248 175.769C308.052 174.965 309.141 174.513 310.278 174.512L317.572 174.512ZM218.192 70.8338C218.193 69.6972 218.645 68.6075 219.448 67.8038C220.252 67.0001 221.342 66.5481 222.478 66.5468H263.352C263.272 67.1342 263.232 67.7263 263.231 68.3191V71.9757H244.483C243.953 71.9757 243.444 72.1865 243.069 72.5615C242.694 72.9366 242.484 73.4453 242.484 73.9757V79.86H233.917C232.553 79.8616 231.246 80.4041 230.282 81.3685C229.317 82.3328 228.775 83.6402 228.773 85.0039V125.019C227.546 124.146 226.329 123.258 225.121 122.356C224.775 122.097 224.354 121.956 223.921 121.956C223.489 121.956 223.068 122.097 222.721 122.356C221.229 123.476 219.72 124.571 218.193 125.644L218.192 70.8338ZM223.272 214.904C217.036 212.763 211.152 209.709 205.813 205.842C193.993 197.191 188 186.258 188 173.347V147.189C200.709 141.636 212.757 134.679 223.921 126.449C235.084 134.679 247.132 141.636 259.841 147.189V173.347C259.841 186.21 253.667 197.114 241.49 205.757C235.894 209.675 229.757 212.756 223.272 214.904ZM334.904 201.604C334.903 202.74 334.451 203.83 333.647 204.634C332.844 205.438 331.754 205.89 330.618 205.891H247.839C252.57 201.891 256.288 197.425 258.945 192.576H302.774C303.027 192.574 303.28 192.556 303.531 192.521C303.882 192.605 304.25 192.592 304.594 192.484C304.938 192.375 305.246 192.174 305.485 191.903C305.989 191.633 306.451 191.29 306.855 190.885L322.632 175.109C323.17 174.574 323.596 173.938 323.886 173.237C324.176 172.537 324.325 171.785 324.323 171.027V85.0039C324.321 83.6402 323.779 82.3328 322.814 81.3685C321.85 80.4041 320.543 79.8616 319.179 79.86H310.613V73.9757C310.613 73.4453 310.402 72.9366 310.027 72.5615C309.652 72.1865 309.143 71.9757 308.613 71.9757H289.865V68.3175C289.863 67.7246 289.823 67.1326 289.743 66.5452H330.618C331.754 66.5467 332.844 66.9991 333.648 67.8031C334.451 68.6071 334.903 69.6971 334.904 70.8338L334.904 201.604Z" fill="#FAF4F8"/>
<path d="M330.618 62.5452H288.547C287.461 60.2851 285.758 58.3779 283.635 57.043C281.512 55.7082 279.055 55 276.547 55C274.04 55 271.583 55.7082 269.46 57.043C267.337 58.3779 265.634 60.2851 264.548 62.5452H222.478C220.281 62.5476 218.174 63.4217 216.621 64.9756C215.067 66.5295 214.194 68.6364 214.192 70.8338V128.375C205.1 134.411 195.484 139.618 185.46 143.933L185.21 144.04C184.851 144.194 184.545 144.451 184.33 144.777C184.115 145.104 184 145.486 184 145.877V173.349C184 187.405 190.726 199.758 203.45 209.071C209.308 213.349 215.805 216.673 222.702 218.92C223.062 219.025 223.445 219.027 223.806 218.925C230.456 216.836 236.767 213.793 242.543 209.891H330.618C332.815 209.889 334.921 209.015 336.475 207.461C338.028 205.908 338.902 203.801 338.904 201.604V70.8338C338.903 68.6364 338.029 66.5295 336.475 64.9756C334.922 63.4217 332.815 62.5476 330.618 62.5452ZM267.231 73.9757V68.3175C267.22 67.0874 267.454 65.8674 267.917 64.7279C268.381 63.5885 269.065 62.5521 269.932 61.6786C270.798 60.805 271.828 60.1117 272.964 59.6385C274.099 59.1654 275.317 58.9218 276.547 58.9218C277.778 58.9218 278.995 59.1654 280.131 59.6385C281.266 60.1117 282.297 60.805 283.163 61.6786C284.029 62.5521 284.714 63.5885 285.177 64.7279C285.641 65.8674 285.874 67.0874 285.864 68.3175V73.9757C285.864 74.5061 286.075 75.0148 286.45 75.3899C286.825 75.765 287.333 75.9757 287.864 75.9757H306.611V87.0649H246.483V75.9757H265.231C265.761 75.9757 266.27 75.765 266.645 75.3899C267.02 75.0148 267.231 74.5061 267.231 73.9757ZM310.612 89.0648V83.8599H319.178C319.481 83.8603 319.772 83.9809 319.987 84.1954C320.201 84.4099 320.321 84.7006 320.322 85.0039V170.512H310.278C308.081 170.514 305.974 171.388 304.421 172.942C302.867 174.495 301.993 176.602 301.991 178.799V188.576H260.862C262.848 183.746 263.86 178.571 263.841 173.348V145.876C263.841 145.485 263.726 145.102 263.511 144.776C263.296 144.449 262.99 144.193 262.631 144.038L262.382 143.931C252.034 139.477 242.122 134.072 232.772 127.786V85.0039C232.773 84.7006 232.893 84.4099 233.108 84.1954C233.322 83.9809 233.613 83.8603 233.916 83.8599H242.483V89.0648C242.483 89.5953 242.693 90.104 243.068 90.479C243.443 90.8541 243.952 91.0648 244.482 91.0648H308.612C309.142 91.0648 309.651 90.8541 310.026 90.479C310.401 90.104 310.612 89.5953 310.612 89.0648ZM317.572 174.512L305.991 186.093V178.799C305.992 177.662 306.444 176.573 307.248 175.769C308.052 174.965 309.141 174.513 310.278 174.512L317.572 174.512ZM218.192 70.8338C218.193 69.6972 218.645 68.6075 219.448 67.8038C220.252 67.0001 221.342 66.5481 222.478 66.5468H263.352C263.272 67.1342 263.232 67.7263 263.231 68.3191V71.9757H244.483C243.953 71.9757 243.444 72.1865 243.069 72.5615C242.694 72.9366 242.484 73.4453 242.484 73.9757V79.86H233.917C232.553 79.8616 231.246 80.4041 230.282 81.3685C229.317 82.3328 228.775 83.6402 228.773 85.0039V125.019C227.546 124.146 226.329 123.258 225.121 122.356C224.775 122.097 224.354 121.956 223.921 121.956C223.489 121.956 223.068 122.097 222.721 122.356C221.229 123.476 219.72 124.571 218.193 125.644L218.192 70.8338ZM223.272 214.904C217.036 212.763 211.152 209.709 205.813 205.842C193.993 197.191 188 186.258 188 173.347V147.189C200.709 141.636 212.757 134.679 223.921 126.449C235.084 134.679 247.132 141.636 259.841 147.189V173.347C259.841 186.21 253.667 197.114 241.49 205.757C235.894 209.675 229.757 212.756 223.272 214.904ZM334.904 201.604C334.903 202.74 334.451 203.83 333.647 204.634C332.844 205.438 331.754 205.89 330.618 205.891H247.839C252.57 201.891 256.288 197.425 258.945 192.576H302.774C303.027 192.574 303.28 192.556 303.531 192.521C303.882 192.605 304.25 192.592 304.594 192.484C304.938 192.375 305.246 192.174 305.485 191.903C305.989 191.633 306.451 191.29 306.855 190.885L322.632 175.109C323.17 174.574 323.596 173.938 323.886 173.237C324.176 172.537 324.325 171.785 324.323 171.027V85.0039C324.321 83.6402 323.779 82.3328 322.814 81.3685C321.85 80.4041 320.543 79.8616 319.179 79.86H310.613V73.9757C310.613 73.4453 310.402 72.9366 310.027 72.5615C309.652 72.1865 309.143 71.9757 308.613 71.9757H289.865V68.3175C289.863 67.7246 289.823 67.1326 289.743 66.5452H330.618C331.754 66.5467 332.844 66.9991 333.648 67.8031C334.451 68.6071 334.903 69.6971 334.904 70.8338L334.904 201.604Z" stroke="#FAF4F8" stroke-width="1.42609" mask="url(#path-3-outside-1)"/>
<path d="M267.572 111.282H298.886C299.511 111.282 300.11 111.034 300.552 110.592C300.994 110.15 301.242 109.551 301.242 108.926C301.242 108.301 300.994 107.701 300.552 107.259C300.11 106.817 299.511 106.569 298.886 106.569H267.572C266.947 106.569 266.348 106.817 265.906 107.259C265.464 107.701 265.216 108.301 265.216 108.926C265.216 109.551 265.464 110.15 265.906 110.592C266.348 111.034 266.947 111.282 267.572 111.282Z" fill="#FAF4F8" stroke="#FAF4F8" stroke-width="0.713043"/>
<path d="M244.486 111.282H256.735C257.36 111.282 257.959 111.034 258.401 110.592C258.843 110.15 259.091 109.551 259.091 108.926C259.091 108.301 258.843 107.701 258.401 107.259C257.959 106.817 257.36 106.569 256.735 106.569H244.486C243.861 106.569 243.261 106.817 242.819 107.259C242.378 107.701 242.129 108.301 242.129 108.926C242.129 109.551 242.378 110.15 242.819 110.592C243.261 111.034 243.861 111.282 244.486 111.282Z" fill="#FAF4F8" stroke="#FAF4F8" stroke-width="0.713043"/>
<path d="M297.173 125.876C297.173 125.251 296.925 124.652 296.483 124.21C296.041 123.768 295.442 123.519 294.817 123.519H285.791C285.166 123.519 284.567 123.768 284.125 124.21C283.683 124.652 283.434 125.251 283.434 125.876C283.434 126.501 283.683 127.1 284.125 127.542C284.567 127.984 285.166 128.232 285.791 128.232H294.817C295.442 128.232 296.041 127.984 296.483 127.542C296.925 127.1 297.173 126.501 297.173 125.876Z" fill="#FAF4F8" stroke="#FAF4F8" stroke-width="0.713043"/>
<path d="M280.182 125.876C280.182 125.251 279.934 124.652 279.492 124.21C279.05 123.768 278.451 123.519 277.826 123.519H244.486C243.861 123.519 243.261 123.768 242.819 124.21C242.378 124.652 242.129 125.251 242.129 125.876C242.129 126.501 242.378 127.1 242.819 127.542C243.261 127.984 243.861 128.232 244.486 128.232H277.826C278.451 128.232 279.05 127.984 279.492 127.542C279.934 127.1 280.182 126.501 280.182 125.876Z" fill="#FAF4F8" stroke="#FAF4F8" stroke-width="0.713043"/>
<path d="M269.369 141.525C268.744 141.525 268.144 141.773 267.703 142.215C267.261 142.657 267.012 143.257 267.012 143.882C267.012 144.507 267.261 145.106 267.703 145.548C268.144 145.99 268.744 146.238 269.369 146.238H287.369C287.994 146.238 288.593 145.99 289.035 145.548C289.477 145.106 289.725 144.507 289.725 143.882C289.725 143.257 289.477 142.657 289.035 142.215C288.593 141.773 287.994 141.525 287.369 141.525H269.369Z" fill="#FAF4F8" stroke="#FAF4F8" stroke-width="0.713043"/>
<path d="M308.613 158.168H268.907C268.282 158.168 267.683 158.416 267.241 158.858C266.799 159.3 266.551 159.899 266.551 160.524C266.551 161.149 266.799 161.749 267.241 162.191C267.683 162.633 268.282 162.881 268.907 162.881H308.613C309.238 162.881 309.838 162.633 310.28 162.191C310.722 161.749 310.97 161.149 310.97 160.524C310.97 159.899 310.722 159.3 310.28 158.858C309.838 158.416 309.238 158.168 308.613 158.168Z" fill="#FAF4F8" stroke="#FAF4F8" stroke-width="0.713043"/>
<path d="M240.439 158.312C239.87 158.281 239.311 158.456 238.864 158.804H238.851L238.749 158.898L218.991 176.996L209.236 166.418C209.028 166.186 208.776 165.998 208.495 165.865L208.342 166.187L208.495 165.865C208.213 165.731 207.907 165.654 207.595 165.639C207.283 165.624 206.972 165.672 206.678 165.778C206.385 165.885 206.116 166.049 205.886 166.261C205.657 166.472 205.471 166.727 205.341 167.011C205.211 167.295 205.139 167.602 205.128 167.914C205.118 168.226 205.17 168.537 205.28 168.829C205.391 169.12 205.558 169.386 205.772 169.613L217.118 181.917C217.541 182.375 218.128 182.647 218.751 182.674C219.375 182.7 219.983 182.478 220.443 182.057L220.443 182.057L241.932 162.374L241.932 162.374L241.938 162.368C242.383 161.943 242.644 161.359 242.665 160.744C242.685 160.128 242.464 159.528 242.048 159.074C241.632 158.619 241.054 158.346 240.439 158.312Z" fill="#FAF4F8" stroke="#FAF4F8" stroke-width="0.713043"/>
</g>
</svg>
