<?xml version="1.0" encoding="UTF-8" ?>
<svg width="64" height="64" viewBox="0 0 64 64" fill="none" xmlns="http://www.w3.org/2000/svg">
<path d="M8.09143 53.6021C2.12795 46.6227 -1.01072 37.1951 0.291824 27.5547C1.57868 17.9295 7.32245 8.10654 16.2991 3.37756C25.2757 -1.36664 37.4851 -1.00169 47.2307 3.77291C56.9919 8.5323 64.2894 17.6862 63.9912 25.8364C63.7087 33.9867 58.9207 43.0018 52.2667 50.1333C45.6127 57.2496 37.0928 62.4823 29.968 63.7747C22.8589 65.0824 14.0549 60.5663 8.09143 53.6021Z" fill="#FEF5EF"/>
<mask id="path-2-outside-1" maskUnits="userSpaceOnUse" x="19.3254" y="26.2804" width="33" height="23" fill="black">
<rect fill="white" x="19.3254" y="26.2804" width="33" height="23"/>
<path d="M42.1426 34.2926C42.1823 34.3661 42.2412 34.4275 42.3129 34.4703C42.3846 34.5131 42.4666 34.5357 42.5502 34.5357H46.091C45.6028 38.0684 43.8364 41.2995 41.1261 43.6173C38.5644 45.8139 35.3464 47.0736 32.2972 47.0736C30.3086 47.0736 28.2293 46.5375 26.2842 45.5234C24.2643 44.4686 22.5124 42.9659 21.1624 41.1301C21.1264 41.081 21.0812 41.0395 21.0292 41.0079C20.9772 40.9763 20.9195 40.9553 20.8594 40.946C20.7993 40.9367 20.7379 40.9394 20.6788 40.9538C20.6197 40.9682 20.564 40.9941 20.515 41.0301C20.4659 41.066 20.4244 41.1113 20.3928 41.1633C20.3612 41.2153 20.3402 41.273 20.3309 41.3331C20.3216 41.3932 20.3242 41.4546 20.3387 41.5137C20.3531 41.5728 20.379 41.6284 20.415 41.6775C21.849 43.6278 23.7101 45.2242 25.8559 46.3448C27.9325 47.4276 30.16 48 32.2972 48C35.5643 48 39.002 46.6589 41.729 44.3206C44.6446 41.8269 46.5318 38.3404 47.0253 34.5357H50.8519C50.9354 34.5357 51.0174 34.5131 51.0891 34.4703C51.1609 34.4276 51.2197 34.3662 51.2594 34.2927C51.2991 34.2191 51.3182 34.1363 51.3147 34.0528C51.3111 33.9693 51.2851 33.8884 51.2393 33.8185L47.0884 27.4896C47.0462 27.4253 46.9888 27.3725 46.9211 27.336C46.8535 27.2995 46.7779 27.2804 46.701 27.2804C46.6242 27.2804 46.5485 27.2995 46.4809 27.336C46.4133 27.3725 46.3558 27.4253 46.3137 27.4896L42.1628 33.8185C42.117 33.8884 42.0909 33.9693 42.0874 34.0528C42.0838 34.1363 42.1029 34.2191 42.1426 34.2926ZM46.701 28.5876L49.9942 33.6088H43.4078L46.701 28.5876Z"/>
</mask>
<path d="M42.1426 34.2926C42.1823 34.3661 42.2412 34.4275 42.3129 34.4703C42.3846 34.5131 42.4666 34.5357 42.5502 34.5357H46.091C45.6028 38.0684 43.8364 41.2995 41.1261 43.6173C38.5644 45.8139 35.3464 47.0736 32.2972 47.0736C30.3086 47.0736 28.2293 46.5375 26.2842 45.5234C24.2643 44.4686 22.5124 42.9659 21.1624 41.1301C21.1264 41.081 21.0812 41.0395 21.0292 41.0079C20.9772 40.9763 20.9195 40.9553 20.8594 40.946C20.7993 40.9367 20.7379 40.9394 20.6788 40.9538C20.6197 40.9682 20.564 40.9941 20.515 41.0301C20.4659 41.066 20.4244 41.1113 20.3928 41.1633C20.3612 41.2153 20.3402 41.273 20.3309 41.3331C20.3216 41.3932 20.3242 41.4546 20.3387 41.5137C20.3531 41.5728 20.379 41.6284 20.415 41.6775C21.849 43.6278 23.7101 45.2242 25.8559 46.3448C27.9325 47.4276 30.16 48 32.2972 48C35.5643 48 39.002 46.6589 41.729 44.3206C44.6446 41.8269 46.5318 38.3404 47.0253 34.5357H50.8519C50.9354 34.5357 51.0174 34.5131 51.0891 34.4703C51.1609 34.4276 51.2197 34.3662 51.2594 34.2927C51.2991 34.2191 51.3182 34.1363 51.3147 34.0528C51.3111 33.9693 51.2851 33.8884 51.2393 33.8185L47.0884 27.4896C47.0462 27.4253 46.9888 27.3725 46.9211 27.336C46.8535 27.2995 46.7779 27.2804 46.701 27.2804C46.6242 27.2804 46.5485 27.2995 46.4809 27.336C46.4133 27.3725 46.3558 27.4253 46.3137 27.4896L42.1628 33.8185C42.117 33.8884 42.0909 33.9693 42.0874 34.0528C42.0838 34.1363 42.1029 34.2191 42.1426 34.2926ZM46.701 28.5876L49.9942 33.6088H43.4078L46.701 28.5876Z" fill="url(#paint0_linear)"/>
<path d="M42.5502 34.5357L42.5501 35.5357H42.5502V34.5357ZM46.091 34.5357L47.0816 34.6726L47.2387 33.5357H46.091V34.5357ZM41.1261 43.6173L40.4761 42.8574L40.4752 42.8582L41.1261 43.6173ZM26.2842 45.5234L25.8213 46.4098L25.8219 46.4101L26.2842 45.5234ZM21.1624 41.1301L20.3556 41.721L20.3568 41.7225L21.1624 41.1301ZM20.415 41.6775L19.6082 42.2684L19.6093 42.2699L20.415 41.6775ZM25.8559 46.3448L25.393 47.2312L25.3935 47.2315L25.8559 46.3448ZM41.729 44.3206L41.079 43.5607L41.0781 43.5615L41.729 44.3206ZM47.0253 34.5357V33.5357H46.1466L46.0336 34.4071L47.0253 34.5357ZM50.8519 34.5357L50.8519 33.5357H50.8519V34.5357ZM51.2393 33.8185L52.0755 33.2702L52.0755 33.2701L51.2393 33.8185ZM47.0884 27.4896L46.2521 28.0379L46.2522 28.038L47.0884 27.4896ZM46.3137 27.4896L47.1499 28.038L47.1499 28.0379L46.3137 27.4896ZM42.1628 33.8185L41.3266 33.2701L41.3265 33.2703L42.1628 33.8185ZM46.701 28.5876L47.5372 28.0392L46.701 26.7642L45.8648 28.0392L46.701 28.5876ZM49.9942 33.6088V34.6088H51.846L50.8304 33.0604L49.9942 33.6088ZM43.4078 33.6088L42.5716 33.0604L41.5561 34.6088H43.4078V33.6088ZM41.2627 34.7678C41.3881 35 41.574 35.1939 41.8006 35.3291L42.8252 33.6115C42.9083 33.6611 42.9765 33.7322 43.0225 33.8174L41.2627 34.7678ZM41.8006 35.3291C42.0272 35.4643 42.2862 35.5357 42.5501 35.5357L42.5502 33.5357C42.647 33.5357 42.7421 33.5619 42.8252 33.6115L41.8006 35.3291ZM42.5502 35.5357H46.091V33.5357H42.5502V35.5357ZM45.1004 34.3988C44.6457 37.6891 43.0005 40.6985 40.4761 42.8574L41.776 44.3773C44.6723 41.9005 46.5599 38.4477 47.0816 34.6726L45.1004 34.3988ZM40.4752 42.8582C38.074 44.9171 35.0817 46.0736 32.2972 46.0736V48.0736C35.6111 48.0736 39.0548 46.7107 41.777 44.3765L40.4752 42.8582ZM32.2972 46.0736C30.4856 46.0736 28.5639 45.5842 26.7465 44.6367L25.8219 46.4101C27.8947 47.4909 30.1315 48.0736 32.2972 48.0736V46.0736ZM26.7471 44.637C24.8624 43.6528 23.2277 42.2506 21.968 40.5377L20.3568 41.7225C21.7971 43.6811 23.6663 45.2844 25.8213 46.4098L26.7471 44.637ZM21.9692 40.5392C21.8556 40.3842 21.7126 40.253 21.5484 40.1533L20.51 41.8625C20.4497 41.8259 20.3973 41.7778 20.3556 41.721L21.9692 40.5392ZM21.5484 40.1533C21.3842 40.0535 21.202 39.9871 21.0121 39.9577L20.7067 41.9343C20.6371 41.9235 20.5702 41.8991 20.51 41.8625L21.5484 40.1533ZM21.0121 39.9577C20.8221 39.9284 20.6283 39.9367 20.4417 39.9823L20.916 41.9253C20.8475 41.942 20.7764 41.945 20.7067 41.9343L21.0121 39.9577ZM20.4417 39.9823C20.255 40.0279 20.0791 40.1098 19.9241 40.2233L21.1058 41.8368C21.0489 41.8785 20.9844 41.9085 20.916 41.9253L20.4417 39.9823ZM19.9241 40.2233C19.7691 40.3369 19.6379 40.4798 19.5382 40.644L21.2474 41.6825C21.2108 41.7427 21.1627 41.7952 21.1058 41.8368L19.9241 40.2233ZM19.5382 40.644C19.4384 40.8083 19.3719 40.9905 19.3426 41.1804L21.3191 41.4857C21.3084 41.5554 21.284 41.6223 21.2474 41.6825L19.5382 40.644ZM19.3426 41.1804C19.3133 41.3703 19.3216 41.5641 19.3672 41.7508L21.3101 41.2765C21.3268 41.345 21.3299 41.4161 21.3191 41.4857L19.3426 41.1804ZM19.3672 41.7508C19.4128 41.9375 19.4946 42.1134 19.6082 42.2684L21.2217 41.0866C21.2634 41.1435 21.2934 41.208 21.3101 41.2765L19.3672 41.7508ZM19.6093 42.2699C21.1337 44.343 23.112 46.0401 25.393 47.2312L26.3188 45.4584C24.3082 44.4084 22.5643 42.9125 21.2206 41.0851L19.6093 42.2699ZM25.3935 47.2315C27.599 48.3815 29.984 49 32.2972 49V47C30.336 47 28.2661 46.4738 26.3183 45.4581L25.3935 47.2315ZM32.2972 49C35.8274 49 39.4911 47.5568 42.3799 45.0798L41.0781 43.5615C38.513 45.7609 35.3012 47 32.2972 47V49ZM42.379 45.0806C45.4827 42.426 47.4916 38.7146 48.017 34.6643L46.0336 34.4071C45.5719 37.9663 43.8065 41.2279 41.079 43.5607L42.379 45.0806ZM47.0253 35.5357H50.8519V33.5357H47.0253V35.5357ZM50.8518 35.5357C51.1157 35.5357 51.3747 35.4644 51.6013 35.3292L50.577 33.6115C50.6601 33.5619 50.7551 33.5357 50.8519 33.5357L50.8518 35.5357ZM51.6013 35.3292C51.828 35.194 52.0139 35.0001 52.1393 34.7679L50.3796 33.8174C50.4256 33.7322 50.4938 33.6611 50.577 33.6115L51.6013 35.3292ZM52.1393 34.7679C52.2647 34.5357 52.325 34.2739 52.3138 34.0103L50.3156 34.0954C50.3115 33.9986 50.3336 33.9026 50.3796 33.8174L52.1393 34.7679ZM52.3138 34.0103C52.3025 33.7466 52.2202 33.4909 52.0755 33.2702L50.403 34.3669C50.3499 34.2859 50.3197 34.1921 50.3156 34.0954L52.3138 34.0103ZM52.0755 33.2701L47.9246 26.9411L46.2522 28.038L50.4031 34.367L52.0755 33.2701ZM47.9246 26.9412C47.7915 26.7382 47.61 26.5715 47.3963 26.4561L46.4459 28.2159C46.3675 28.1736 46.3009 28.1124 46.2521 28.0379L47.9246 26.9412ZM47.3963 26.4561C47.1827 26.3408 46.9438 26.2804 46.701 26.2804V28.2804C46.612 28.2804 46.5243 28.2582 46.4459 28.2159L47.3963 26.4561ZM46.701 26.2804C46.4583 26.2804 46.2193 26.3408 46.0057 26.4561L46.9561 28.2159C46.8777 28.2582 46.7901 28.2804 46.701 28.2804V26.2804ZM46.0057 26.4561C45.7921 26.5715 45.6105 26.7382 45.4774 26.9412L47.1499 28.0379C47.1011 28.1124 47.0345 28.1736 46.9561 28.2159L46.0057 26.4561ZM45.4775 26.9411L41.3266 33.2701L42.999 34.367L47.1499 28.038L45.4775 26.9411ZM41.3265 33.2703C41.1818 33.491 41.0995 33.7467 41.0883 34.0103L43.0865 34.0953C43.0824 34.192 43.0522 34.2858 42.9991 34.3668L41.3265 33.2703ZM41.0883 34.0103C41.0771 34.274 41.1374 34.5357 41.2628 34.7679L43.0225 33.8173C43.0685 33.9025 43.0906 33.9985 43.0865 34.0953L41.0883 34.0103ZM45.8648 29.1361L49.158 34.1572L50.8304 33.0604L47.5372 28.0392L45.8648 29.1361ZM49.9942 32.6088H43.4078V34.6088H49.9942V32.6088ZM44.244 34.1572L47.5372 29.1361L45.8648 28.0392L42.5716 33.0604L44.244 34.1572Z" fill="#FFBB89" mask="url(#path-2-outside-1)"/>
<mask id="path-4-outside-2" maskUnits="userSpaceOnUse" x="12.3333" y="15" width="33" height="23" fill="black">
<rect fill="white" x="12.3333" y="15" width="33" height="23"/>
<path d="M17.56 36.5104C17.6022 36.5747 17.6597 36.6275 17.7273 36.664C17.7949 36.7005 17.8705 36.7196 17.9474 36.7196C18.0242 36.7196 18.0999 36.7005 18.1675 36.664C18.2351 36.6275 18.2926 36.5747 18.3347 36.5104L22.4856 30.1814C22.5314 30.1116 22.5575 30.0306 22.561 29.9472C22.5646 29.8637 22.5455 29.7808 22.5058 29.7073C22.4661 29.6338 22.4073 29.5724 22.3355 29.5296C22.2638 29.4869 22.1818 29.4643 22.0982 29.4643H18.5574C19.0456 25.9316 20.812 22.7005 23.5223 20.3826C26.084 18.1861 29.302 16.9264 32.3512 16.9264C34.3398 16.9264 36.4191 17.4624 38.3642 18.4766C40.3841 19.5314 42.136 21.0341 43.486 22.8699C43.5586 22.969 43.6676 23.0352 43.789 23.054C43.9104 23.0727 44.0343 23.0425 44.1334 22.9699C44.2326 22.8973 44.2988 22.7883 44.3175 22.6669C44.3363 22.5455 44.306 22.4216 44.2335 22.3225C42.7994 20.3722 40.9383 18.7758 38.7925 17.6552C36.7159 16.5723 34.4884 16 32.3512 16C29.0841 16 25.6464 17.3411 22.9194 19.6794C20.0038 22.1731 18.1166 25.6595 17.6231 29.4643H13.7965C13.713 29.4643 13.631 29.4869 13.5593 29.5296C13.4875 29.5724 13.4287 29.6338 13.389 29.7073C13.3493 29.7808 13.3302 29.8637 13.3337 29.9472C13.3373 30.0306 13.3633 30.1116 13.4092 30.1814L17.56 36.5104ZM21.2406 30.3907L17.9474 35.412L14.6542 30.3907H21.2406Z"/>
</mask>
<path d="M17.56 36.5104C17.6022 36.5747 17.6597 36.6275 17.7273 36.664C17.7949 36.7005 17.8705 36.7196 17.9474 36.7196C18.0242 36.7196 18.0999 36.7005 18.1675 36.664C18.2351 36.6275 18.2926 36.5747 18.3347 36.5104L22.4856 30.1814C22.5314 30.1116 22.5575 30.0306 22.561 29.9472C22.5646 29.8637 22.5455 29.7808 22.5058 29.7073C22.4661 29.6338 22.4073 29.5724 22.3355 29.5296C22.2638 29.4869 22.1818 29.4643 22.0982 29.4643H18.5574C19.0456 25.9316 20.812 22.7005 23.5223 20.3826C26.084 18.1861 29.302 16.9264 32.3512 16.9264C34.3398 16.9264 36.4191 17.4624 38.3642 18.4766C40.3841 19.5314 42.136 21.0341 43.486 22.8699C43.5586 22.969 43.6676 23.0352 43.789 23.054C43.9104 23.0727 44.0343 23.0425 44.1334 22.9699C44.2326 22.8973 44.2988 22.7883 44.3175 22.6669C44.3363 22.5455 44.306 22.4216 44.2335 22.3225C42.7994 20.3722 40.9383 18.7758 38.7925 17.6552C36.7159 16.5723 34.4884 16 32.3512 16C29.0841 16 25.6464 17.3411 22.9194 19.6794C20.0038 22.1731 18.1166 25.6595 17.6231 29.4643H13.7965C13.713 29.4643 13.631 29.4869 13.5593 29.5296C13.4875 29.5724 13.4287 29.6338 13.389 29.7073C13.3493 29.7808 13.3302 29.8637 13.3337 29.9472C13.3373 30.0306 13.3633 30.1116 13.4092 30.1814L17.56 36.5104ZM21.2406 30.3907L17.9474 35.412L14.6542 30.3907H21.2406Z" fill="url(#paint1_linear)"/>
<path d="M17.56 36.5104L18.3963 35.9621L18.3962 35.962L17.56 36.5104ZM18.3347 36.5104L17.4985 35.962L17.4985 35.9621L18.3347 36.5104ZM22.4856 30.1814L23.3218 30.7299L23.3219 30.7298L22.4856 30.1814ZM22.0982 29.4643V30.4643H22.0983L22.0982 29.4643ZM18.5574 29.4643L17.5668 29.3274L17.4097 30.4643H18.5574V29.4643ZM23.5223 20.3826L24.1723 21.1426L24.1732 21.1418L23.5223 20.3826ZM38.3642 18.4766L38.8271 17.5902L38.8265 17.5899L38.3642 18.4766ZM43.486 22.8699L44.2928 22.279L44.2916 22.2775L43.486 22.8699ZM44.2335 22.3225L45.0402 21.7316L45.0391 21.7301L44.2335 22.3225ZM38.7925 17.6552L39.2554 16.7688L39.2549 16.7685L38.7925 17.6552ZM22.9194 19.6794L23.5694 20.4393L23.5703 20.4385L22.9194 19.6794ZM17.6231 29.4643V30.4643H18.5018L18.6148 29.5929L17.6231 29.4643ZM13.7965 29.4643L13.7965 30.4643H13.7965V29.4643ZM13.4092 30.1814L12.5729 30.7298L12.573 30.7299L13.4092 30.1814ZM21.2406 30.3907L22.0768 30.9391L23.0923 29.3907H21.2406V30.3907ZM17.9474 35.412L17.1112 35.9605L17.9474 37.2355L18.7836 35.9604L17.9474 35.412ZM14.6542 30.3907V29.3907H12.8025L13.818 30.9391L14.6542 30.3907ZM16.7238 37.0588C16.8569 37.2618 17.0385 37.4285 17.2521 37.5438L18.2025 35.7841C18.2809 35.8264 18.3475 35.8876 18.3963 35.9621L16.7238 37.0588ZM17.2521 37.5438C17.4657 37.6592 17.7046 37.7196 17.9474 37.7196V35.7196C18.0364 35.7196 18.1241 35.7418 18.2025 35.7841L17.2521 37.5438ZM17.9474 37.7196C18.1902 37.7196 18.4291 37.6592 18.6427 37.5438L17.6923 35.7841C17.7707 35.7418 17.8583 35.7196 17.9474 35.7196V37.7196ZM18.6427 37.5438C18.8563 37.4285 19.0379 37.2618 19.171 37.0588L17.4985 35.9621C17.5473 35.8876 17.6139 35.8264 17.6923 35.7841L18.6427 37.5438ZM19.1709 37.0588L23.3218 30.7299L21.6494 29.633L17.4985 35.962L19.1709 37.0588ZM23.3219 30.7298C23.4666 30.5091 23.5489 30.2534 23.5601 29.9897L21.562 29.9046C21.5661 29.8079 21.5963 29.7141 21.6494 29.6331L23.3219 30.7298ZM23.5601 29.9897C23.5714 29.7261 23.5111 29.4643 23.3857 29.2321L21.626 30.1826C21.58 30.0974 21.5578 30.0014 21.562 29.9046L23.5601 29.9897ZM23.3857 29.2321C23.2602 28.9999 23.0744 28.8059 22.8477 28.6708L21.8233 30.3885C21.7402 30.3389 21.672 30.2678 21.626 30.1826L23.3857 29.2321ZM22.8477 28.6708C22.6211 28.5356 22.3621 28.4643 22.0982 28.4643L22.0983 30.4643C22.0015 30.4643 21.9065 30.4381 21.8233 30.3885L22.8477 28.6708ZM22.0982 28.4643H18.5574V30.4643H22.0982V28.4643ZM19.548 29.6012C20.0027 26.3109 21.6479 23.3014 24.1723 21.1426L22.8724 19.6227C19.9761 22.0995 18.0885 25.5523 17.5668 29.3274L19.548 29.6012ZM24.1732 21.1418C26.5744 19.0829 29.5667 17.9264 32.3512 17.9264V15.9264C29.0373 15.9264 25.5936 17.2893 22.8714 19.6235L24.1732 21.1418ZM32.3512 17.9264C34.1628 17.9264 36.0845 18.4158 37.9019 19.3633L38.8265 17.5899C36.7537 16.5091 34.5169 15.9264 32.3512 15.9264V17.9264ZM37.9013 19.363C39.7861 20.3472 41.4207 21.7494 42.6804 23.4623L44.2916 22.2775C42.8513 20.3188 40.9821 18.7155 38.8271 17.5902L37.9013 19.363ZM42.6793 23.4608C42.9086 23.7739 43.2528 23.983 43.6364 24.0423L43.9417 22.0657C44.0824 22.0874 44.2087 22.1642 44.2928 22.279L42.6793 23.4608ZM43.6364 24.0423C44.0199 24.1015 44.4112 24.006 44.7243 23.7767L43.5426 22.1631C43.6574 22.079 43.801 22.044 43.9417 22.0657L43.6364 24.0423ZM44.7243 23.7767C45.0374 23.5474 45.2466 23.2031 45.3058 22.8196L43.3293 22.5142C43.351 22.3736 43.4277 22.2473 43.5426 22.1631L44.7243 23.7767ZM45.3058 22.8196C45.3651 22.4361 45.2695 22.0447 45.0402 21.7316L43.4267 22.9134C43.3426 22.7985 43.3075 22.6549 43.3293 22.5142L45.3058 22.8196ZM45.0391 21.7301C43.5147 19.657 41.5364 17.9599 39.2554 16.7688L38.3296 18.5416C40.3402 19.5916 42.0841 21.0875 43.4278 22.9149L45.0391 21.7301ZM39.2549 16.7685C37.0494 15.6185 34.6644 15 32.3512 15V17C34.3124 17 36.3823 17.5262 38.3301 18.5419L39.2549 16.7685ZM32.3512 15C28.821 15 25.1573 16.4431 22.2685 18.9202L23.5703 20.4385C26.1354 18.239 29.3472 17 32.3512 17V15ZM22.2694 18.9194C19.1657 21.574 17.1568 25.2854 16.6314 29.3356L18.6148 29.5929C19.0765 26.0337 20.8419 22.7721 23.5694 20.4393L22.2694 18.9194ZM17.6231 28.4643H13.7965V30.4643H17.6231V28.4643ZM13.7966 28.4643C13.5327 28.4643 13.2737 28.5356 13.0471 28.6708L14.0715 30.3885C13.9883 30.4381 13.8933 30.4643 13.7965 30.4643L13.7966 28.4643ZM13.0471 28.6708C12.8204 28.8059 12.6345 28.9999 12.5091 29.2321L14.2688 30.1826C14.2228 30.2678 14.1546 30.3389 14.0715 30.3885L13.0471 28.6708ZM12.5091 29.2321C12.3837 29.4643 12.3234 29.7261 12.3346 29.9897L14.3328 29.9046C14.3369 30.0014 14.3148 30.0974 14.2688 30.1826L12.5091 29.2321ZM12.3346 29.9897C12.3459 30.2534 12.4282 30.5091 12.5729 30.7298L14.2454 29.6331C14.2985 29.7141 14.3287 29.8079 14.3328 29.9046L12.3346 29.9897ZM12.573 30.7299L16.7238 37.0588L18.3962 35.962L14.2454 29.633L12.573 30.7299ZM20.4044 29.8423L17.1112 34.8636L18.7836 35.9604L22.0768 30.9391L20.4044 29.8423ZM18.7836 34.8636L15.4904 29.8422L13.818 30.9391L17.1112 35.9605L18.7836 34.8636ZM14.6542 31.3907H21.2406V29.3907H14.6542V31.3907Z" fill="#FFBB89" mask="url(#path-4-outside-2)"/>
<path d="M40.9593 24.8566L40.9595 24.8567C41.1211 24.9362 41.2572 25.0593 41.3523 25.2122C41.4474 25.3651 41.4978 25.5416 41.4976 25.7216M40.9593 24.8566L40.9976 33.4026C40.9976 35.3958 39.7067 37.8372 38.0586 38.9609M40.9593 24.8566L32.7489 20.8242L32.7487 20.8241C32.6167 20.7593 32.4716 20.7256 32.3245 20.7256C32.1775 20.7256 32.0323 20.7593 31.9003 20.8241L23.6907 24.8446C23.6907 24.8446 23.6907 24.8446 23.6906 24.8446C23.5288 24.9239 23.3924 25.0469 23.297 25.1998C23.2016 25.3528 23.151 25.5294 23.151 25.7097V33.4026C23.151 34.4991 23.5034 35.6879 24.0605 36.7415C24.6176 37.7952 25.4018 38.7559 26.3082 39.374C26.3082 39.374 26.3083 39.374 26.3083 39.374M40.9593 24.8566L26.3083 39.374M41.4976 25.7216L40.9976 25.7213H41.4976V25.7216ZM41.4976 25.7216V33.4026C41.4976 34.4991 41.1453 35.6879 40.5882 36.7415C40.031 37.7952 39.2468 38.7559 38.3403 39.374M38.3403 39.374L38.3403 39.374L38.0586 38.9609M38.3403 39.374L32.867 43.1068M38.3403 39.374L38.0586 38.9609M38.0586 38.9609L32.867 43.1068M32.867 43.1068L32.5853 42.6937L32.867 43.1068L32.867 43.1068ZM32.867 43.1068C32.707 43.2159 32.5179 43.2743 32.3242 43.2743C32.1306 43.2743 31.9415 43.2159 31.7815 43.1068M32.867 43.1068L31.7815 43.1068L31.7815 43.1068M31.7815 43.1068L26.3083 39.374M31.7815 43.1068L26.3083 39.374M37.2549 37.7824L37.2549 37.7824L32.3243 41.1449L27.3935 37.7821L27.3934 37.782C26.7928 37.3726 26.2077 36.662 25.7714 35.837C25.3352 35.012 25.0774 34.1287 25.0774 33.4026V26.3104L32.3239 22.7615L39.5711 26.3211V33.4026C39.5711 34.1453 39.3179 35.025 38.8859 35.8418C38.454 36.6585 37.8693 37.3635 37.2549 37.7824Z" fill="url(#paint2_linear)" stroke="#FFBB89"/>
<mask id="path-7-outside-3" maskUnits="userSpaceOnUse" x="27.3912" y="28.3519" width="10" height="8" fill="black">
<rect fill="white" x="27.3912" y="28.3519" width="10" height="8"/>
<path d="M31.0067 34.5123C31.0932 34.5967 31.2093 34.644 31.3302 34.644C31.4511 34.644 31.5672 34.5967 31.6537 34.5123L36.1217 30.1506C36.1661 30.1083 36.2017 30.0576 36.2263 30.0015C36.251 29.9453 36.2643 29.8849 36.2654 29.8236C36.2665 29.7623 36.2555 29.7013 36.2329 29.6443C36.2103 29.5873 36.1766 29.5354 36.1337 29.4915C36.0909 29.4477 36.0398 29.4127 35.9833 29.3887C35.9269 29.3648 35.8663 29.3523 35.805 29.3519C35.7436 29.3516 35.6829 29.3634 35.6262 29.3867C35.5694 29.41 35.5179 29.4444 35.4746 29.4877L31.3302 33.5339L29.1738 31.4286C29.0856 31.3446 28.9678 31.2987 28.846 31.3009C28.7241 31.3032 28.6081 31.3533 28.523 31.4405C28.4379 31.5277 28.3905 31.6449 28.3912 31.7667C28.3919 31.8886 28.4406 32.0052 28.5267 32.0914L31.0067 34.5123Z"/>
</mask>
<path d="M31.0067 34.5123C31.0932 34.5967 31.2093 34.644 31.3302 34.644C31.4511 34.644 31.5672 34.5967 31.6537 34.5123L36.1217 30.1506C36.1661 30.1083 36.2017 30.0576 36.2263 30.0015C36.251 29.9453 36.2643 29.8849 36.2654 29.8236C36.2665 29.7623 36.2555 29.7013 36.2329 29.6443C36.2103 29.5873 36.1766 29.5354 36.1337 29.4915C36.0909 29.4477 36.0398 29.4127 35.9833 29.3887C35.9269 29.3648 35.8663 29.3523 35.805 29.3519C35.7436 29.3516 35.6829 29.3634 35.6262 29.3867C35.5694 29.41 35.5179 29.4444 35.4746 29.4877L31.3302 33.5339L29.1738 31.4286C29.0856 31.3446 28.9678 31.2987 28.846 31.3009C28.7241 31.3032 28.6081 31.3533 28.523 31.4405C28.4379 31.5277 28.3905 31.6449 28.3912 31.7667C28.3919 31.8886 28.4406 32.0052 28.5267 32.0914L31.0067 34.5123Z" fill="url(#paint3_linear)"/>
<path d="M31.0067 34.5123L30.3081 35.2279L30.3082 35.2279L31.0067 34.5123ZM31.6537 34.5123L32.3522 35.2279L32.3523 35.2278L31.6537 34.5123ZM36.1217 30.1506L35.4321 29.4262L35.4231 29.435L36.1217 30.1506ZM35.4746 29.4877L36.1732 30.2033L36.1821 30.1945L35.4746 29.4877ZM31.3302 33.5339L30.6316 34.2494L31.3302 34.9314L32.0288 34.2494L31.3302 33.5339ZM29.1738 31.4286L29.8724 30.713L29.8633 30.7043L29.1738 31.4286ZM28.5267 32.0914L27.8192 32.7982L27.8282 32.807L28.5267 32.0914ZM30.3082 35.2279C30.5815 35.4947 30.9483 35.644 31.3302 35.644V33.644C31.4703 33.644 31.6049 33.6988 31.7052 33.7967L30.3082 35.2279ZM31.3302 35.644C31.7121 35.644 32.0789 35.4947 32.3522 35.2279L30.9552 33.7967C31.0555 33.6988 31.1901 33.644 31.3302 33.644V35.644ZM32.3523 35.2278L36.8202 30.8661L35.4231 29.435L30.9552 33.7967L32.3523 35.2278ZM36.8112 30.8748C36.9515 30.7413 37.0639 30.5812 37.1418 30.4039L35.3109 29.5991C35.3395 29.534 35.3807 29.4753 35.4322 29.4263L36.8112 30.8748ZM37.1418 30.4039C37.2197 30.2266 37.2617 30.0355 37.2652 29.8419L35.2656 29.8053C35.2669 29.7342 35.2823 29.6641 35.3109 29.5991L37.1418 30.4039ZM37.2652 29.8419C37.2688 29.6482 37.2338 29.4557 37.1624 29.2757L35.3033 30.013C35.2771 29.9469 35.2643 29.8763 35.2656 29.8053L37.2652 29.8419ZM37.1624 29.2757C37.091 29.0957 36.9846 28.9316 36.8493 28.793L35.4182 30.1901C35.3685 30.1392 35.3295 30.079 35.3033 30.013L37.1624 29.2757ZM36.8493 28.793C36.714 28.6544 36.5525 28.544 36.3742 28.4683L35.5925 30.3092C35.5271 30.2814 35.4678 30.2409 35.4182 30.1901L36.8493 28.793ZM36.3742 28.4683C36.1959 28.3926 36.0044 28.353 35.8107 28.3519L35.7992 30.3519C35.7281 30.3515 35.6579 30.337 35.5925 30.3092L36.3742 28.4683ZM35.8107 28.3519C35.617 28.3508 35.425 28.3882 35.2459 28.4618L36.0064 30.3116C35.9407 30.3386 35.8703 30.3523 35.7992 30.3519L35.8107 28.3519ZM35.2459 28.4618C35.0667 28.5355 34.904 28.644 34.7671 28.781L36.1821 30.1945C36.1319 30.2447 36.0722 30.2845 36.0064 30.3116L35.2459 28.4618ZM34.776 28.7722L30.6316 32.8183L32.0288 34.2494L36.1732 30.2033L34.776 28.7722ZM32.0288 32.8183L29.8724 30.7131L28.4752 32.1441L30.6316 34.2494L32.0288 32.8183ZM29.8633 30.7043C29.5846 30.4389 29.2125 30.2941 28.8277 30.3011L28.8642 32.3008C28.7231 32.3034 28.5866 32.2502 28.4843 32.1529L29.8633 30.7043ZM28.8277 30.3011C28.4428 30.3082 28.0763 30.4665 27.8074 30.7419L29.2385 32.1391C29.1399 32.2401 29.0054 32.2982 28.8642 32.3008L28.8277 30.3011ZM27.8074 30.7419C27.5386 31.0173 27.389 31.3876 27.3913 31.7725L29.3912 31.761C29.392 31.9022 29.3372 32.038 29.2385 32.1391L27.8074 30.7419ZM27.3913 31.7725C27.3935 32.1573 27.5472 32.5259 27.8192 32.7981L29.2342 31.3847C29.334 31.4846 29.3904 31.6198 29.3912 31.761L27.3913 31.7725ZM27.8282 32.807L30.3081 35.2279L31.7052 33.7967L29.2253 31.3758L27.8282 32.807Z" fill="#FFBB89" mask="url(#path-7-outside-3)"/>
<defs>
<linearGradient id="paint0_linear" x1="35.8203" y1="27.2804" x2="35.8203" y2="48" gradientUnits="userSpaceOnUse">
<stop stop-color="#F58634"/>
<stop offset="1" stop-color="#A8518A" stop-opacity="0.63"/>
</linearGradient>
<linearGradient id="paint1_linear" x1="28.8281" y1="16" x2="28.8281" y2="36.7196" gradientUnits="userSpaceOnUse">
<stop stop-color="#F58634"/>
<stop offset="1" stop-color="#A8518A" stop-opacity="0.63"/>
</linearGradient>
<linearGradient id="paint3_linear" x1="32.3284" y1="29.3519" x2="32.3284" y2="34.644" gradientUnits="userSpaceOnUse">
<stop stop-color="#F58634"/>
<stop offset="1" stop-color="#A8518A" stop-opacity="0.63"/>
</linearGradient>
</defs>
</svg>
