<?xml version="1.0" encoding="UTF-8" ?>
<svg width="284" height="200" viewBox="0 0 284 200" fill="none" xmlns="http://www.w3.org/2000/svg">
<mask id="mask0" mask-type="alpha" maskUnits="userSpaceOnUse" x="0" y="0" width="284" height="200">
<path d="M0 4C0 1.79086 1.79086 0 4 0H280C282.209 0 284 1.79086 284 4V196C284 198.209 282.209 200 280 200H4C1.79086 200 0 198.209 0 196V4Z" fill="white"/>
</mask>
<g mask="url(#mask0)">
<path d="M4 -0.5C1.51472 -0.5 -0.5 1.51471 -0.5 4V196C-0.5 198.485 1.51472 200.5 4 200.5H280C282.485 200.5 284.5 198.485 284.5 196V4C284.5 1.51472 282.485 -0.5 280 -0.5H4Z" fill="white" stroke="black"/>
<path d="M197.6 96.0334H211.2C212.507 96.0334 213.567 94.9738 213.567 93.6667C213.567 92.3597 212.507 91.3001 211.2 91.3001H197.6C196.293 91.3001 195.233 92.3597 195.233 93.6667C195.233 94.9738 196.293 96.0334 197.6 96.0334Z" fill="#FAF4F8" stroke="#FAF4F8" stroke-width="0.2"/>
<path d="M222.533 96.0334H242.933C244.241 96.0334 245.3 94.9738 245.3 93.6667C245.3 92.3597 244.241 91.3001 242.933 91.3001H222.533C221.226 91.3001 220.167 92.3597 220.167 93.6667C220.167 94.9738 221.226 96.0334 222.533 96.0334Z" fill="#FAF4F8" stroke="#FAF4F8" stroke-width="0.2"/>
<path d="M197.6 120.967H270.133C271.44 120.967 272.5 119.907 272.5 118.6C272.5 117.293 271.44 116.233 270.133 116.233H197.6C196.293 116.233 195.233 117.293 195.233 118.6C195.233 119.907 196.293 120.967 197.6 120.967Z" fill="#FAF4F8" stroke="#FAF4F8" stroke-width="0.2"/>
<path d="M197.6 130.033H229.333C230.64 130.033 231.7 128.974 231.7 127.667C231.7 126.36 230.64 125.3 229.333 125.3H197.6C196.293 125.3 195.233 126.36 195.233 127.667C195.233 128.974 196.293 130.033 197.6 130.033Z" fill="#FAF4F8" stroke="#FAF4F8" stroke-width="0.2"/>
<path d="M197.6 148.167H229.333C230.64 148.167 231.7 147.107 231.7 145.8C231.7 144.493 230.64 143.433 229.333 143.433H197.6C196.293 143.433 195.233 144.493 195.233 145.8C195.233 147.107 196.293 148.167 197.6 148.167Z" fill="#FAF4F8" stroke="#FAF4F8" stroke-width="0.2"/>
<path d="M197.6 166.3H229.333C230.64 166.3 231.7 165.241 231.7 163.933C231.7 162.626 230.64 161.567 229.333 161.567H197.6C196.293 161.567 195.233 162.626 195.233 163.933C195.233 165.241 196.293 166.3 197.6 166.3Z" fill="#FAF4F8" stroke="#FAF4F8" stroke-width="0.2"/>
<path d="M197.6 184.433H229.333C230.64 184.433 231.7 183.374 231.7 182.067C231.7 180.76 230.64 179.7 229.333 179.7H197.6C196.293 179.7 195.233 180.76 195.233 182.067C195.233 183.374 196.293 184.433 197.6 184.433Z" fill="#FAF4F8" stroke="#FAF4F8" stroke-width="0.2"/>
<mask id="path-10-outside-1" maskUnits="userSpaceOnUse" x="183" y="70" width="138" height="138" fill="black">
<rect fill="white" x="183" y="70" width="138" height="138"/>
<path d="M318.64 137.028L292.8 125.869V77.8C292.8 74.0445 289.756 71 286 71H199.867C196.111 71 193.067 74.0445 193.067 77.8V80.0667H190.8C187.044 80.0667 184 83.1111 184 86.8667V200.2C184 203.956 187.044 207 190.8 207H276.933C278.767 206.996 280.521 206.249 281.795 204.931L283.654 206.252C285.059 207.249 286.941 207.249 288.346 206.252L310.276 190.641C316.355 186.327 319.977 179.342 320 171.887V139.109C320.001 138.206 319.467 137.389 318.64 137.028ZM197.6 77.8C197.6 76.5482 198.615 75.5333 199.867 75.5333H286C287.252 75.5333 288.267 76.5482 288.267 77.8V123.911L286.907 123.319C286.334 123.072 285.684 123.072 285.111 123.319L283.751 123.911V109.533C283.751 109.483 283.727 109.436 283.722 109.386C283.711 109.196 283.674 109.009 283.613 108.828C283.597 108.776 283.6 108.722 283.579 108.672C283.559 108.622 283.543 108.622 283.532 108.595C283.421 108.348 283.268 108.123 283.078 107.931L255.878 80.7308C255.686 80.5413 255.461 80.3878 255.214 80.2775C255.185 80.2639 255.164 80.2412 255.137 80.2299C255.11 80.2185 255.033 80.2117 254.983 80.1959C254.8 80.135 254.611 80.0977 254.419 80.0848C254.362 80.0916 254.317 80.0667 254.267 80.0667H197.6V77.8ZM256.533 87.8051L275.995 107.267H258.8C257.548 107.267 256.533 106.252 256.533 105V87.8051ZM276.933 202.467H190.8C189.548 202.467 188.533 201.452 188.533 200.2V86.8667C188.533 85.6148 189.548 84.6 190.8 84.6H252V105C252 108.756 255.044 111.8 258.8 111.8H279.2V125.869L271.904 129.027C272.217 128.642 272.392 128.163 272.4 127.667C272.4 126.415 271.385 125.4 270.133 125.4H238.4C237.148 125.4 236.133 126.415 236.133 127.667C236.133 128.919 237.148 129.933 238.4 129.933H269.791L259.296 134.467H197.6C196.348 134.467 195.333 135.481 195.333 136.733C195.333 137.985 196.348 139 197.6 139H252.016C252.016 139.036 252 139.07 252 139.109V143.533H238.4C237.148 143.533 236.133 144.548 236.133 145.8C236.133 147.052 237.148 148.067 238.4 148.067H252V152.6H197.6C196.348 152.6 195.333 153.615 195.333 154.867C195.333 156.119 196.348 157.133 197.6 157.133H252V161.667H238.4C237.148 161.667 236.133 162.681 236.133 163.933C236.133 165.185 237.148 166.2 238.4 166.2H252V170.733H197.6C196.348 170.733 195.333 171.748 195.333 173C195.333 174.252 196.348 175.267 197.6 175.267H252.283C252.509 176.813 252.893 178.332 253.43 179.8H238.4C237.148 179.8 236.133 180.815 236.133 182.067C236.133 183.319 237.148 184.333 238.4 184.333H255.72C256.791 186.001 258.071 187.525 259.53 188.867H197.6C196.348 188.867 195.333 189.882 195.333 191.133C195.333 192.385 196.348 193.4 197.6 193.4H265.6L277.949 202.19C277.637 202.363 277.289 202.458 276.933 202.467ZM315.467 171.887C315.445 177.875 312.533 183.483 307.649 186.947L286 202.358L264.351 186.945C259.468 183.481 256.556 177.874 256.533 171.887V140.607L260.636 138.835L260.679 138.816L286 127.868L315.467 140.598V171.887Z"/>
</mask>
<path d="M318.64 137.028L292.8 125.869V77.8C292.8 74.0445 289.756 71 286 71H199.867C196.111 71 193.067 74.0445 193.067 77.8V80.0667H190.8C187.044 80.0667 184 83.1111 184 86.8667V200.2C184 203.956 187.044 207 190.8 207H276.933C278.767 206.996 280.521 206.249 281.795 204.931L283.654 206.252C285.059 207.249 286.941 207.249 288.346 206.252L310.276 190.641C316.355 186.327 319.977 179.342 320 171.887V139.109C320.001 138.206 319.467 137.389 318.64 137.028ZM197.6 77.8C197.6 76.5482 198.615 75.5333 199.867 75.5333H286C287.252 75.5333 288.267 76.5482 288.267 77.8V123.911L286.907 123.319C286.334 123.072 285.684 123.072 285.111 123.319L283.751 123.911V109.533C283.751 109.483 283.727 109.436 283.722 109.386C283.711 109.196 283.674 109.009 283.613 108.828C283.597 108.776 283.6 108.722 283.579 108.672C283.559 108.622 283.543 108.622 283.532 108.595C283.421 108.348 283.268 108.123 283.078 107.931L255.878 80.7308C255.686 80.5413 255.461 80.3878 255.214 80.2775C255.185 80.2639 255.164 80.2412 255.137 80.2299C255.11 80.2185 255.033 80.2117 254.983 80.1959C254.8 80.135 254.611 80.0977 254.419 80.0848C254.362 80.0916 254.317 80.0667 254.267 80.0667H197.6V77.8ZM256.533 87.8051L275.995 107.267H258.8C257.548 107.267 256.533 106.252 256.533 105V87.8051ZM276.933 202.467H190.8C189.548 202.467 188.533 201.452 188.533 200.2V86.8667C188.533 85.6148 189.548 84.6 190.8 84.6H252V105C252 108.756 255.044 111.8 258.8 111.8H279.2V125.869L271.904 129.027C272.217 128.642 272.392 128.163 272.4 127.667C272.4 126.415 271.385 125.4 270.133 125.4H238.4C237.148 125.4 236.133 126.415 236.133 127.667C236.133 128.919 237.148 129.933 238.4 129.933H269.791L259.296 134.467H197.6C196.348 134.467 195.333 135.481 195.333 136.733C195.333 137.985 196.348 139 197.6 139H252.016C252.016 139.036 252 139.07 252 139.109V143.533H238.4C237.148 143.533 236.133 144.548 236.133 145.8C236.133 147.052 237.148 148.067 238.4 148.067H252V152.6H197.6C196.348 152.6 195.333 153.615 195.333 154.867C195.333 156.119 196.348 157.133 197.6 157.133H252V161.667H238.4C237.148 161.667 236.133 162.681 236.133 163.933C236.133 165.185 237.148 166.2 238.4 166.2H252V170.733H197.6C196.348 170.733 195.333 171.748 195.333 173C195.333 174.252 196.348 175.267 197.6 175.267H252.283C252.509 176.813 252.893 178.332 253.43 179.8H238.4C237.148 179.8 236.133 180.815 236.133 182.067C236.133 183.319 237.148 184.333 238.4 184.333H255.72C256.791 186.001 258.071 187.525 259.53 188.867H197.6C196.348 188.867 195.333 189.882 195.333 191.133C195.333 192.385 196.348 193.4 197.6 193.4H265.6L277.949 202.19C277.637 202.363 277.289 202.458 276.933 202.467ZM315.467 171.887C315.445 177.875 312.533 183.483 307.649 186.947L286 202.358L264.351 186.945C259.468 183.481 256.556 177.874 256.533 171.887V140.607L260.636 138.835L260.679 138.816L286 127.868L315.467 140.598V171.887Z" fill="#FAF4F8"/>
<path d="M318.64 137.028L292.8 125.869V77.8C292.8 74.0445 289.756 71 286 71H199.867C196.111 71 193.067 74.0445 193.067 77.8V80.0667H190.8C187.044 80.0667 184 83.1111 184 86.8667V200.2C184 203.956 187.044 207 190.8 207H276.933C278.767 206.996 280.521 206.249 281.795 204.931L283.654 206.252C285.059 207.249 286.941 207.249 288.346 206.252L310.276 190.641C316.355 186.327 319.977 179.342 320 171.887V139.109C320.001 138.206 319.467 137.389 318.64 137.028ZM197.6 77.8C197.6 76.5482 198.615 75.5333 199.867 75.5333H286C287.252 75.5333 288.267 76.5482 288.267 77.8V123.911L286.907 123.319C286.334 123.072 285.684 123.072 285.111 123.319L283.751 123.911V109.533C283.751 109.483 283.727 109.436 283.722 109.386C283.711 109.196 283.674 109.009 283.613 108.828C283.597 108.776 283.6 108.722 283.579 108.672C283.559 108.622 283.543 108.622 283.532 108.595C283.421 108.348 283.268 108.123 283.078 107.931L255.878 80.7308C255.686 80.5413 255.461 80.3878 255.214 80.2775C255.185 80.2639 255.164 80.2412 255.137 80.2299C255.11 80.2185 255.033 80.2117 254.983 80.1959C254.8 80.135 254.611 80.0977 254.419 80.0848C254.362 80.0916 254.317 80.0667 254.267 80.0667H197.6V77.8ZM256.533 87.8051L275.995 107.267H258.8C257.548 107.267 256.533 106.252 256.533 105V87.8051ZM276.933 202.467H190.8C189.548 202.467 188.533 201.452 188.533 200.2V86.8667C188.533 85.6148 189.548 84.6 190.8 84.6H252V105C252 108.756 255.044 111.8 258.8 111.8H279.2V125.869L271.904 129.027C272.217 128.642 272.392 128.163 272.4 127.667C272.4 126.415 271.385 125.4 270.133 125.4H238.4C237.148 125.4 236.133 126.415 236.133 127.667C236.133 128.919 237.148 129.933 238.4 129.933H269.791L259.296 134.467H197.6C196.348 134.467 195.333 135.481 195.333 136.733C195.333 137.985 196.348 139 197.6 139H252.016C252.016 139.036 252 139.07 252 139.109V143.533H238.4C237.148 143.533 236.133 144.548 236.133 145.8C236.133 147.052 237.148 148.067 238.4 148.067H252V152.6H197.6C196.348 152.6 195.333 153.615 195.333 154.867C195.333 156.119 196.348 157.133 197.6 157.133H252V161.667H238.4C237.148 161.667 236.133 162.681 236.133 163.933C236.133 165.185 237.148 166.2 238.4 166.2H252V170.733H197.6C196.348 170.733 195.333 171.748 195.333 173C195.333 174.252 196.348 175.267 197.6 175.267H252.283C252.509 176.813 252.893 178.332 253.43 179.8H238.4C237.148 179.8 236.133 180.815 236.133 182.067C236.133 183.319 237.148 184.333 238.4 184.333H255.72C256.791 186.001 258.071 187.525 259.53 188.867H197.6C196.348 188.867 195.333 189.882 195.333 191.133C195.333 192.385 196.348 193.4 197.6 193.4H265.6L277.949 202.19C277.637 202.363 277.289 202.458 276.933 202.467ZM315.467 171.887C315.445 177.875 312.533 183.483 307.649 186.947L286 202.358L264.351 186.945C259.468 183.481 256.556 177.874 256.533 171.887V140.607L260.636 138.835L260.679 138.816L286 127.868L315.467 140.598V171.887Z" stroke="#FAF4F8" stroke-width="0.4" mask="url(#path-10-outside-1)"/>
<path d="M311.033 145.068C311.035 144.126 310.477 143.273 309.613 142.896L309.613 142.895L286.947 133.104C286.947 133.104 286.946 133.104 286.946 133.103C286.343 132.84 285.657 132.84 285.054 133.103C285.053 133.104 285.053 133.104 285.053 133.104L262.387 142.895L262.387 142.896C261.523 143.273 260.965 144.126 260.967 145.068M311.033 145.068L310.933 145.068H311.033V145.068ZM311.033 145.068V171.887V171.888C311.012 176.44 308.795 180.702 305.08 183.334M305.08 183.334L305.022 183.252L305.08 183.334M305.08 183.334C305.08 183.334 305.08 183.334 305.08 183.334M305.08 183.334L305.08 183.334M305.08 183.334L287.373 195.939C286.551 196.524 285.449 196.524 284.627 195.939L266.92 183.334C263.205 180.703 260.987 176.44 260.967 171.888L260.967 171.887L260.967 145.068M260.967 145.068L261.067 145.068H260.967L260.967 145.068ZM302.333 179.492L302.332 179.492L286 191.106L269.668 179.478L269.667 179.478C267.197 177.736 265.72 174.909 265.7 171.887V146.623L286 137.856L306.3 146.634V171.887C306.284 174.914 304.806 177.746 302.333 179.492Z" fill="#FAF4F8" stroke="#FAF4F8" stroke-width="0.2"/>
<path d="M283.315 176.746L283.315 176.746L301.448 154.079C302.265 153.058 302.1 151.569 301.079 150.752C300.058 149.935 298.568 150.1 297.751 151.121L297.751 151.121L281.052 171.998L273.82 166.573L273.76 166.653L273.82 166.573C273.143 166.066 272.248 165.958 271.47 166.29C270.693 166.623 270.151 167.344 270.05 168.184C269.949 169.023 270.303 169.853 270.98 170.36L280.046 177.16C280.046 177.16 280.046 177.16 280.046 177.16C281.069 177.927 282.516 177.744 283.315 176.746Z" fill="#FAF4F8" stroke="#FAF4F8" stroke-width="0.2"/>
</g>
</svg>
