<?xml version="1.0" encoding="UTF-8" ?>
<svg width="64" height="64" viewBox="0 0 64 64" fill="none" xmlns="http://www.w3.org/2000/svg">
<path d="M8.09143 53.6021C2.12795 46.6227 -1.01072 37.1951 0.291828 27.5547C1.57868 17.9294 7.32245 8.10654 16.2991 3.37756C25.2757 -1.36664 37.4851 -1.00169 47.2307 3.77291C56.9919 8.5323 64.2894 17.6862 63.9912 25.8364C63.7087 33.9867 58.9207 43.0018 52.2667 50.1333C45.6127 57.2496 37.0928 62.4823 29.968 63.7747C22.8589 65.0824 14.0549 60.5663 8.09143 53.6021Z" fill="#FEF5EF"/>
<path d="M31.7916 18.5006C31.4455 18.5006 31.1672 18.7794 31.1672 19.125C31.1672 19.4467 31.4092 19.7144 31.7291 19.7461C32.0994 19.7829 32.416 19.4944 32.416 19.125C32.416 18.7789 32.1372 18.5006 31.7916 18.5006Z" fill="url(#paint0_linear)"/>
<path d="M44.2916 19.75C42.5685 19.75 41.1666 18.3481 41.1666 16.625C41.1666 16.2799 40.8868 16 40.5416 16H23.0416C22.6965 16 22.4166 16.2799 22.4166 16.625C22.4166 18.3481 21.0148 19.75 19.2916 19.75C18.9465 19.75 18.6666 20.0299 18.6666 20.375V30.5744C18.6666 38.5229 23.8476 45.6453 31.6121 47.9737C31.6707 47.9912 31.7311 48 31.7916 48C31.8521 48 31.9127 47.9912 31.9712 47.9736C39.5676 45.6949 44.9166 38.6968 44.9166 30.5744V20.375C44.9166 20.0299 44.6368 19.75 44.2916 19.75ZM43.6666 30.5744C43.6666 38.0399 38.9028 44.5051 31.7916 46.7214C24.7371 44.5228 19.9166 37.999 19.9166 30.5744V20.9555C21.8298 20.6806 23.3473 19.1632 23.6221 17.25H39.9611C40.236 19.1632 41.7534 20.6806 43.6666 20.9555V30.5744Z" fill="url(#paint1_linear)"/>
<path d="M42.0424 21.7806C40.739 21.2098 39.7068 20.1776 39.136 18.8743C39.0364 18.6469 38.8118 18.5 38.5635 18.5H34.2904C33.9453 18.5 33.6654 18.7799 33.6654 19.125C33.6654 19.4701 33.9453 19.75 34.2904 19.75H38.1683C38.8286 21.0426 39.8741 22.0879 41.1666 22.7483V30.5744C41.1666 36.6908 37.4948 41.9683 31.7916 44.0809C26.0884 41.9683 22.4166 36.6908 22.4166 30.5744V22.7483C23.7092 22.0879 24.7546 21.0426 25.4149 19.75H29.2929C29.638 19.75 29.9179 19.4701 29.9179 19.125C29.9179 18.7799 29.638 18.5 29.2929 18.5H25.0198C24.7715 18.5 24.5469 18.6469 24.4473 18.8743C23.8764 20.1776 22.8443 21.2098 21.5409 21.7806C21.3136 21.8803 21.1666 22.1049 21.1666 22.3531V30.5744C21.1666 37.2752 25.3111 43.1152 31.5831 45.3348C31.6506 45.3586 31.7211 45.3706 31.7916 45.3706C31.8622 45.3706 31.9327 45.3586 32.0001 45.3348C38.2669 43.1171 42.4166 37.2806 42.4166 30.5744V22.3531C42.4166 22.1049 42.2697 21.8803 42.0424 21.7806Z" fill="url(#paint2_linear)"/>
<path d="M31.7916 25.125C28.69 25.125 26.1666 27.6484 26.1666 30.75C26.1666 33.8516 28.69 36.375 31.7916 36.375C34.8933 36.375 37.4166 33.8516 37.4166 30.75C37.4166 27.6484 34.8933 25.125 31.7916 25.125ZM31.7916 35.125C29.3793 35.125 27.4166 33.1624 27.4166 30.75C27.4166 28.3376 29.3793 26.375 31.7916 26.375C34.204 26.375 36.1666 28.3376 36.1666 30.75C36.1666 33.1624 34.204 35.125 31.7916 35.125Z" fill="url(#paint3_linear)"/>
<path d="M34.7335 29.058C34.4894 28.814 34.0937 28.814 33.8496 29.058L31.1666 31.7411L30.3585 30.9331C30.1144 30.6891 29.7187 30.6891 29.4746 30.9331C29.2305 31.1771 29.2305 31.5729 29.4746 31.817L30.7246 33.067C30.8467 33.1889 31.0066 33.25 31.1666 33.25C31.3266 33.25 31.4864 33.1889 31.6085 33.0669L34.7335 29.9419C34.9776 29.6979 34.9776 29.3021 34.7335 29.058Z" fill="url(#paint4_linear)"/>
<defs>
<linearGradient id="paint0_linear" x1="31.7916" y1="18.5006" x2="31.7916" y2="19.7493" gradientUnits="userSpaceOnUse">
<stop stop-color="#F58634"/>
<stop offset="1" stop-color="#A8518A" stop-opacity="0.63"/>
</linearGradient>
<linearGradient id="paint1_linear" x1="31.7916" y1="16" x2="31.7916" y2="48" gradientUnits="userSpaceOnUse">
<stop stop-color="#F58634"/>
<stop offset="1" stop-color="#A8518A" stop-opacity="0.63"/>
</linearGradient>
<linearGradient id="paint2_linear" x1="31.7916" y1="18.5" x2="31.7916" y2="45.3706" gradientUnits="userSpaceOnUse">
<stop stop-color="#F58634"/>
<stop offset="1" stop-color="#A8518A" stop-opacity="0.63"/>
</linearGradient>
<linearGradient id="paint3_linear" x1="31.7916" y1="25.125" x2="31.7916" y2="36.375" gradientUnits="userSpaceOnUse">
<stop stop-color="#F58634"/>
<stop offset="1" stop-color="#A8518A" stop-opacity="0.63"/>
</linearGradient>
<linearGradient id="paint4_linear" x1="32.104" y1="28.875" x2="32.104" y2="33.25" gradientUnits="userSpaceOnUse">
<stop stop-color="#F58634"/>
<stop offset="1" stop-color="#A8518A" stop-opacity="0.63"/>
</linearGradient>
</defs>
</svg>
