<?xml version="1.0" encoding="UTF-8" ?>
<svg width="64" height="64" viewBox="0 0 64 64" fill="none" xmlns="http://www.w3.org/2000/svg">
<path d="M8.09143 53.6021C2.12796 46.6227 -1.01072 37.1951 0.291832 27.5547C1.57869 17.9295 7.32246 8.10655 16.2991 3.37756C25.2757 -1.36663 37.4851 -1.00169 47.2307 3.77291C56.9919 8.53231 64.2894 17.6862 63.9912 25.8364C63.7087 33.9867 58.9207 43.0018 52.2667 50.1333C45.6127 57.2496 37.0928 62.4823 29.968 63.7747C22.8589 65.0824 14.0549 60.5663 8.09143 53.6021Z" fill="#FEF5EF"/>
<mask id="path-2-outside-1" maskUnits="userSpaceOnUse" x="13.6667" y="15" width="32" height="34" fill="black">
<rect fill="white" x="13.6667" y="15" width="32" height="34"/>
<path d="M43.275 17.4722H35.0661C34.8541 17.0312 34.5218 16.6591 34.1076 16.3986C33.6934 16.1382 33.214 16 32.7247 16C32.2354 16 31.756 16.1382 31.3418 16.3986C30.9275 16.6591 30.5953 17.0312 30.3832 17.4722H22.1746C21.7459 17.4727 21.3348 17.6433 21.0317 17.9465C20.7285 18.2497 20.5581 18.6608 20.5577 19.0895V30.3171C18.7837 31.4949 16.9074 32.5109 14.9515 33.3527L14.9028 33.3736C14.8327 33.4037 14.773 33.4538 14.731 33.5175C14.689 33.5812 14.6667 33.6559 14.6667 33.7322V39.0925C14.6667 41.8352 15.979 44.2455 18.4619 46.0627C19.6047 46.8974 20.8726 47.546 22.2182 47.9843C22.2886 48.0049 22.3633 48.0052 22.4338 47.9853C23.7312 47.5777 24.9627 46.984 26.0897 46.2227H43.275C43.7037 46.2222 44.1147 46.0517 44.4178 45.7486C44.721 45.4454 44.8915 45.0344 44.8919 44.6057V19.0895C44.8915 18.6608 44.7211 18.2497 44.4179 17.9465C44.1148 17.6433 43.7037 17.4727 43.275 17.4722ZM30.9068 19.7026V18.5985C30.9048 18.3585 30.9503 18.1205 31.0408 17.8981C31.1312 17.6758 31.2648 17.4736 31.4338 17.3031C31.6028 17.1327 31.8039 16.9974 32.0254 16.9051C32.247 16.8128 32.4846 16.7652 32.7247 16.7652C32.9647 16.7652 33.2024 16.8128 33.4239 16.9051C33.6455 16.9974 33.8466 17.1327 34.0156 17.3031C34.1846 17.4736 34.3182 17.6758 34.4086 17.8981C34.499 18.1205 34.5446 18.3585 34.5425 18.5985V19.7026C34.5425 19.8061 34.5837 19.9053 34.6568 19.9785C34.73 20.0517 34.8293 20.0928 34.9328 20.0928H38.5907V22.2566H26.8585V20.0928H30.5166C30.6201 20.0928 30.7193 20.0517 30.7925 19.9785C30.8657 19.9053 30.9068 19.8061 30.9068 19.7026ZM39.3713 22.6468V21.6312H41.0429C41.102 21.6313 41.1588 21.6548 41.2006 21.6967C41.2424 21.7385 41.266 21.7952 41.266 21.8544V38.5389H39.3062C38.8775 38.5393 38.4665 38.7098 38.1634 39.013C37.8602 39.3161 37.6897 39.7272 37.6892 40.1559V42.0637H29.664C30.0516 41.1211 30.2491 40.1113 30.2454 39.0922V33.7318C30.2454 33.6555 30.223 33.5809 30.1811 33.5172C30.1391 33.4535 30.0794 33.4034 30.0093 33.3733L29.9607 33.3525C27.9416 32.4833 26.0074 31.4287 24.1832 30.2021V21.8544C24.1833 21.7952 24.2068 21.7385 24.2486 21.6967C24.2905 21.6548 24.3472 21.6313 24.4064 21.6312H26.0779V22.6468C26.0779 22.7503 26.119 22.8496 26.1922 22.9227C26.2654 22.9959 26.3646 23.037 26.4681 23.037H38.9811C39.0846 23.037 39.1839 22.9959 39.257 22.9227C39.3302 22.8496 39.3713 22.7503 39.3713 22.6468ZM40.7296 39.3193L38.4697 41.5791V40.1559C38.47 39.9341 38.5582 39.7215 38.715 39.5647C38.8719 39.4079 39.0845 39.3197 39.3062 39.3194L40.7296 39.3193ZM21.3382 19.0895C21.3384 18.8677 21.4266 18.6551 21.5834 18.4983C21.7403 18.3415 21.9529 18.2533 22.1746 18.253H30.15C30.1344 18.3677 30.1265 18.4832 30.1263 18.5989V19.3123H26.4683C26.3648 19.3123 26.2656 19.3535 26.1924 19.4266C26.1192 19.4998 26.0781 19.5991 26.0781 19.7026V20.8507H24.4066C24.1405 20.8511 23.8854 20.9569 23.6972 21.1451C23.5091 21.3332 23.4032 21.5883 23.4029 21.8544V29.6623C23.1634 29.4919 22.9259 29.3187 22.6903 29.1427C22.6228 29.092 22.5406 29.0647 22.4562 29.0647C22.3718 29.0647 22.2896 29.092 22.2221 29.1427C21.9309 29.3611 21.6363 29.5749 21.3384 29.7841L21.3382 19.0895ZM22.3296 47.2007C21.1128 46.7831 19.9647 46.1872 18.9228 45.4326C16.6165 43.7446 15.4471 41.6113 15.4471 39.0922V33.9882C17.9269 32.9046 20.2779 31.5472 22.4561 29.9413C24.6343 31.5472 26.9851 32.9046 29.4649 33.9882V39.0922C29.4649 41.602 28.2602 43.7295 25.8842 45.416C24.7923 46.1804 23.5948 46.7816 22.3296 47.2007ZM44.1114 44.6056C44.1111 44.8274 44.0229 45.04 43.8661 45.1969C43.7093 45.3537 43.4967 45.4419 43.275 45.4422H27.123C28.0462 44.6617 28.7717 43.7902 29.29 42.8441H37.842C37.8915 42.8438 37.9408 42.8402 37.9898 42.8334C38.0583 42.8498 38.13 42.8473 38.1972 42.8261C38.2643 42.8048 38.3244 42.7656 38.371 42.7127C38.4694 42.6601 38.5596 42.5932 38.6384 42.5142L41.7168 39.4358C41.8217 39.3315 41.9049 39.2074 41.9615 39.0707C42.0181 38.934 42.0471 38.7874 42.0467 38.6394V21.8544C42.0464 21.5883 41.9405 21.3332 41.7524 21.1451C41.5643 20.9569 41.3092 20.8511 41.0431 20.8507H39.3715V19.7026C39.3715 19.5991 39.3304 19.4998 39.2572 19.4266C39.1841 19.3535 39.0848 19.3123 38.9813 19.3123H35.3231V18.5985C35.3229 18.4829 35.315 18.3673 35.2994 18.2527H43.275C43.4968 18.253 43.7094 18.3413 43.8662 18.4982C44.023 18.655 44.1111 18.8677 44.1112 19.0895L44.1114 44.6056Z"/>
</mask>
<path d="M43.275 17.4722H35.0661C34.8541 17.0312 34.5218 16.6591 34.1076 16.3986C33.6934 16.1382 33.214 16 32.7247 16C32.2354 16 31.756 16.1382 31.3418 16.3986C30.9275 16.6591 30.5953 17.0312 30.3832 17.4722H22.1746C21.7459 17.4727 21.3348 17.6433 21.0317 17.9465C20.7285 18.2497 20.5581 18.6608 20.5577 19.0895V30.3171C18.7837 31.4949 16.9074 32.5109 14.9515 33.3527L14.9028 33.3736C14.8327 33.4037 14.773 33.4538 14.731 33.5175C14.689 33.5812 14.6667 33.6559 14.6667 33.7322V39.0925C14.6667 41.8352 15.979 44.2455 18.4619 46.0627C19.6047 46.8974 20.8726 47.546 22.2182 47.9843C22.2886 48.0049 22.3633 48.0052 22.4338 47.9853C23.7312 47.5777 24.9627 46.984 26.0897 46.2227H43.275C43.7037 46.2222 44.1147 46.0517 44.4178 45.7486C44.721 45.4454 44.8915 45.0344 44.8919 44.6057V19.0895C44.8915 18.6608 44.7211 18.2497 44.4179 17.9465C44.1148 17.6433 43.7037 17.4727 43.275 17.4722ZM30.9068 19.7026V18.5985C30.9048 18.3585 30.9503 18.1205 31.0408 17.8981C31.1312 17.6758 31.2648 17.4736 31.4338 17.3031C31.6028 17.1327 31.8039 16.9974 32.0254 16.9051C32.247 16.8128 32.4846 16.7652 32.7247 16.7652C32.9647 16.7652 33.2024 16.8128 33.4239 16.9051C33.6455 16.9974 33.8466 17.1327 34.0156 17.3031C34.1846 17.4736 34.3182 17.6758 34.4086 17.8981C34.499 18.1205 34.5446 18.3585 34.5425 18.5985V19.7026C34.5425 19.8061 34.5837 19.9053 34.6568 19.9785C34.73 20.0517 34.8293 20.0928 34.9328 20.0928H38.5907V22.2566H26.8585V20.0928H30.5166C30.6201 20.0928 30.7193 20.0517 30.7925 19.9785C30.8657 19.9053 30.9068 19.8061 30.9068 19.7026ZM39.3713 22.6468V21.6312H41.0429C41.102 21.6313 41.1588 21.6548 41.2006 21.6967C41.2424 21.7385 41.266 21.7952 41.266 21.8544V38.5389H39.3062C38.8775 38.5393 38.4665 38.7098 38.1634 39.013C37.8602 39.3161 37.6897 39.7272 37.6892 40.1559V42.0637H29.664C30.0516 41.1211 30.2491 40.1113 30.2454 39.0922V33.7318C30.2454 33.6555 30.223 33.5809 30.1811 33.5172C30.1391 33.4535 30.0794 33.4034 30.0093 33.3733L29.9607 33.3525C27.9416 32.4833 26.0074 31.4287 24.1832 30.2021V21.8544C24.1833 21.7952 24.2068 21.7385 24.2486 21.6967C24.2905 21.6548 24.3472 21.6313 24.4064 21.6312H26.0779V22.6468C26.0779 22.7503 26.119 22.8496 26.1922 22.9227C26.2654 22.9959 26.3646 23.037 26.4681 23.037H38.9811C39.0846 23.037 39.1839 22.9959 39.257 22.9227C39.3302 22.8496 39.3713 22.7503 39.3713 22.6468ZM40.7296 39.3193L38.4697 41.5791V40.1559C38.47 39.9341 38.5582 39.7215 38.715 39.5647C38.8719 39.4079 39.0845 39.3197 39.3062 39.3194L40.7296 39.3193ZM21.3382 19.0895C21.3384 18.8677 21.4266 18.6551 21.5834 18.4983C21.7403 18.3415 21.9529 18.2533 22.1746 18.253H30.15C30.1344 18.3677 30.1265 18.4832 30.1263 18.5989V19.3123H26.4683C26.3648 19.3123 26.2656 19.3535 26.1924 19.4266C26.1192 19.4998 26.0781 19.5991 26.0781 19.7026V20.8507H24.4066C24.1405 20.8511 23.8854 20.9569 23.6972 21.1451C23.5091 21.3332 23.4032 21.5883 23.4029 21.8544V29.6623C23.1634 29.4919 22.9259 29.3187 22.6903 29.1427C22.6228 29.092 22.5406 29.0647 22.4562 29.0647C22.3718 29.0647 22.2896 29.092 22.2221 29.1427C21.9309 29.3611 21.6363 29.5749 21.3384 29.7841L21.3382 19.0895ZM22.3296 47.2007C21.1128 46.7831 19.9647 46.1872 18.9228 45.4326C16.6165 43.7446 15.4471 41.6113 15.4471 39.0922V33.9882C17.9269 32.9046 20.2779 31.5472 22.4561 29.9413C24.6343 31.5472 26.9851 32.9046 29.4649 33.9882V39.0922C29.4649 41.602 28.2602 43.7295 25.8842 45.416C24.7923 46.1804 23.5948 46.7816 22.3296 47.2007ZM44.1114 44.6056C44.1111 44.8274 44.0229 45.04 43.8661 45.1969C43.7093 45.3537 43.4967 45.4419 43.275 45.4422H27.123C28.0462 44.6617 28.7717 43.7902 29.29 42.8441H37.842C37.8915 42.8438 37.9408 42.8402 37.9898 42.8334C38.0583 42.8498 38.13 42.8473 38.1972 42.8261C38.2643 42.8048 38.3244 42.7656 38.371 42.7127C38.4694 42.6601 38.5596 42.5932 38.6384 42.5142L41.7168 39.4358C41.8217 39.3315 41.9049 39.2074 41.9615 39.0707C42.0181 38.934 42.0471 38.7874 42.0467 38.6394V21.8544C42.0464 21.5883 41.9405 21.3332 41.7524 21.1451C41.5643 20.9569 41.3092 20.8511 41.0431 20.8507H39.3715V19.7026C39.3715 19.5991 39.3304 19.4998 39.2572 19.4266C39.1841 19.3535 39.0848 19.3123 38.9813 19.3123H35.3231V18.5985C35.3229 18.4829 35.315 18.3673 35.2994 18.2527H43.275C43.4968 18.253 43.7094 18.3413 43.8662 18.4982C44.023 18.655 44.1111 18.8677 44.1112 19.0895L44.1114 44.6056Z" fill="url(#paint0_linear)"/>
<path d="M43.275 17.4722H35.0661C34.8541 17.0312 34.5218 16.6591 34.1076 16.3986C33.6934 16.1382 33.214 16 32.7247 16C32.2354 16 31.756 16.1382 31.3418 16.3986C30.9275 16.6591 30.5953 17.0312 30.3832 17.4722H22.1746C21.7459 17.4727 21.3348 17.6433 21.0317 17.9465C20.7285 18.2497 20.5581 18.6608 20.5577 19.0895V30.3171C18.7837 31.4949 16.9074 32.5109 14.9515 33.3527L14.9028 33.3736C14.8327 33.4037 14.773 33.4538 14.731 33.5175C14.689 33.5812 14.6667 33.6559 14.6667 33.7322V39.0925C14.6667 41.8352 15.979 44.2455 18.4619 46.0627C19.6047 46.8974 20.8726 47.546 22.2182 47.9843C22.2886 48.0049 22.3633 48.0052 22.4338 47.9853C23.7312 47.5777 24.9627 46.984 26.0897 46.2227H43.275C43.7037 46.2222 44.1147 46.0517 44.4178 45.7486C44.721 45.4454 44.8915 45.0344 44.8919 44.6057V19.0895C44.8915 18.6608 44.7211 18.2497 44.4179 17.9465C44.1148 17.6433 43.7037 17.4727 43.275 17.4722ZM30.9068 19.7026V18.5985C30.9048 18.3585 30.9503 18.1205 31.0408 17.8981C31.1312 17.6758 31.2648 17.4736 31.4338 17.3031C31.6028 17.1327 31.8039 16.9974 32.0254 16.9051C32.247 16.8128 32.4846 16.7652 32.7247 16.7652C32.9647 16.7652 33.2024 16.8128 33.4239 16.9051C33.6455 16.9974 33.8466 17.1327 34.0156 17.3031C34.1846 17.4736 34.3182 17.6758 34.4086 17.8981C34.499 18.1205 34.5446 18.3585 34.5425 18.5985V19.7026C34.5425 19.8061 34.5837 19.9053 34.6568 19.9785C34.73 20.0517 34.8293 20.0928 34.9328 20.0928H38.5907V22.2566H26.8585V20.0928H30.5166C30.6201 20.0928 30.7193 20.0517 30.7925 19.9785C30.8657 19.9053 30.9068 19.8061 30.9068 19.7026ZM39.3713 22.6468V21.6312H41.0429C41.102 21.6313 41.1588 21.6548 41.2006 21.6967C41.2424 21.7385 41.266 21.7952 41.266 21.8544V38.5389H39.3062C38.8775 38.5393 38.4665 38.7098 38.1634 39.013C37.8602 39.3161 37.6897 39.7272 37.6892 40.1559V42.0637H29.664C30.0516 41.1211 30.2491 40.1113 30.2454 39.0922V33.7318C30.2454 33.6555 30.223 33.5809 30.1811 33.5172C30.1391 33.4535 30.0794 33.4034 30.0093 33.3733L29.9607 33.3525C27.9416 32.4833 26.0074 31.4287 24.1832 30.2021V21.8544C24.1833 21.7952 24.2068 21.7385 24.2486 21.6967C24.2905 21.6548 24.3472 21.6313 24.4064 21.6312H26.0779V22.6468C26.0779 22.7503 26.119 22.8496 26.1922 22.9227C26.2654 22.9959 26.3646 23.037 26.4681 23.037H38.9811C39.0846 23.037 39.1839 22.9959 39.257 22.9227C39.3302 22.8496 39.3713 22.7503 39.3713 22.6468ZM40.7296 39.3193L38.4697 41.5791V40.1559C38.47 39.9341 38.5582 39.7215 38.715 39.5647C38.8719 39.4079 39.0845 39.3197 39.3062 39.3194L40.7296 39.3193ZM21.3382 19.0895C21.3384 18.8677 21.4266 18.6551 21.5834 18.4983C21.7403 18.3415 21.9529 18.2533 22.1746 18.253H30.15C30.1344 18.3677 30.1265 18.4832 30.1263 18.5989V19.3123H26.4683C26.3648 19.3123 26.2656 19.3535 26.1924 19.4266C26.1192 19.4998 26.0781 19.5991 26.0781 19.7026V20.8507H24.4066C24.1405 20.8511 23.8854 20.9569 23.6972 21.1451C23.5091 21.3332 23.4032 21.5883 23.4029 21.8544V29.6623C23.1634 29.4919 22.9259 29.3187 22.6903 29.1427C22.6228 29.092 22.5406 29.0647 22.4562 29.0647C22.3718 29.0647 22.2896 29.092 22.2221 29.1427C21.9309 29.3611 21.6363 29.5749 21.3384 29.7841L21.3382 19.0895ZM22.3296 47.2007C21.1128 46.7831 19.9647 46.1872 18.9228 45.4326C16.6165 43.7446 15.4471 41.6113 15.4471 39.0922V33.9882C17.9269 32.9046 20.2779 31.5472 22.4561 29.9413C24.6343 31.5472 26.9851 32.9046 29.4649 33.9882V39.0922C29.4649 41.602 28.2602 43.7295 25.8842 45.416C24.7923 46.1804 23.5948 46.7816 22.3296 47.2007ZM44.1114 44.6056C44.1111 44.8274 44.0229 45.04 43.8661 45.1969C43.7093 45.3537 43.4967 45.4419 43.275 45.4422H27.123C28.0462 44.6617 28.7717 43.7902 29.29 42.8441H37.842C37.8915 42.8438 37.9408 42.8402 37.9898 42.8334C38.0583 42.8498 38.13 42.8473 38.1972 42.8261C38.2643 42.8048 38.3244 42.7656 38.371 42.7127C38.4694 42.6601 38.5596 42.5932 38.6384 42.5142L41.7168 39.4358C41.8217 39.3315 41.9049 39.2074 41.9615 39.0707C42.0181 38.934 42.0471 38.7874 42.0467 38.6394V21.8544C42.0464 21.5883 41.9405 21.3332 41.7524 21.1451C41.5643 20.9569 41.3092 20.8511 41.0431 20.8507H39.3715V19.7026C39.3715 19.5991 39.3304 19.4998 39.2572 19.4266C39.1841 19.3535 39.0848 19.3123 38.9813 19.3123H35.3231V18.5985C35.3229 18.4829 35.315 18.3673 35.2994 18.2527H43.275C43.4968 18.253 43.7094 18.3413 43.8662 18.4982C44.023 18.655 44.1111 18.8677 44.1112 19.0895L44.1114 44.6056Z" stroke="#FFBB89" stroke-width="0.46" mask="url(#path-2-outside-1)"/>
<path d="M38.5198 26.0168C38.3858 26.0168 38.2573 26.0701 38.1626 26.1648C38.0678 26.2596 38.0146 26.3881 38.0146 26.5221C38.0146 26.6561 38.0678 26.7846 38.1626 26.8793C38.2573 26.9741 38.3858 27.0273 38.5198 27.0273H38.9809C39.1149 27.0273 39.2434 26.9741 39.3381 26.8793C39.4329 26.7846 39.4861 26.6561 39.4861 26.5221C39.4861 26.3881 39.4329 26.2596 39.3381 26.1648C39.2434 26.0701 39.1149 26.0168 38.9809 26.0168H38.5198Z" fill="url(#paint1_linear)" stroke="#FFBB89" stroke-width="0.23"/>
<path d="M30.9734 27.0273H37.0834C37.2174 27.0273 37.3459 26.9741 37.4406 26.8793C37.5354 26.7846 37.5886 26.6561 37.5886 26.5221C37.5886 26.3881 37.5354 26.2596 37.4406 26.1648C37.3459 26.0701 37.2174 26.0168 37.0834 26.0168H30.9734C30.8394 26.0168 30.7109 26.0701 30.6162 26.1648C30.5214 26.2596 30.4682 26.3881 30.4682 26.5221C30.4682 26.6561 30.5214 26.7846 30.6162 26.8793C30.7109 26.9741 30.8394 27.0273 30.9734 27.0273Z" fill="url(#paint2_linear)" stroke="#FFBB89" stroke-width="0.23"/>
<path d="M26.4687 27.0273H28.8587C28.9927 27.0273 29.1213 26.9741 29.216 26.8793C29.3108 26.7846 29.364 26.6561 29.364 26.5221C29.364 26.3881 29.3108 26.2596 29.216 26.1648C29.1213 26.0701 28.9927 26.0168 28.8587 26.0168H26.4687C26.3347 26.0168 26.2062 26.0701 26.1115 26.1648C26.0167 26.2596 25.9635 26.3881 25.9635 26.5221C25.9635 26.6561 26.0167 26.7846 26.1115 26.8793C26.2062 26.9741 26.3347 27.0273 26.4687 27.0273Z" fill="url(#paint3_linear)" stroke="#FFBB89" stroke-width="0.23"/>
<path d="M38.9808 29.3242H37.6886C37.5546 29.3242 37.4261 29.3774 37.3314 29.4722C37.2366 29.5669 37.1834 29.6955 37.1834 29.8294C37.1834 29.9634 37.2366 30.092 37.3314 30.1867C37.4261 30.2815 37.5546 30.3347 37.6886 30.3347H38.9808C39.1148 30.3347 39.2433 30.2815 39.3381 30.1867C39.4328 30.092 39.4861 29.9634 39.4861 29.8294C39.4861 29.6955 39.4328 29.5669 39.3381 29.4722C39.2433 29.3774 39.1148 29.3242 38.9808 29.3242Z" fill="url(#paint4_linear)" stroke="#FFBB89" stroke-width="0.23"/>
<path d="M36.7947 29.8294C36.7947 29.6955 36.7415 29.5669 36.6467 29.4722C36.552 29.3774 36.4234 29.3242 36.2894 29.3242H34.5283C34.3943 29.3242 34.2658 29.3774 34.171 29.4722C34.0763 29.5669 34.0231 29.6955 34.0231 29.8294C34.0231 29.9634 34.0763 30.092 34.171 30.1867C34.2658 30.2815 34.3943 30.3347 34.5283 30.3347H36.2894C36.4234 30.3347 36.552 30.2815 36.6467 30.1867C36.7415 30.092 36.7947 29.9634 36.7947 29.8294Z" fill="url(#paint5_linear)" stroke="#FFBB89" stroke-width="0.23"/>
<path d="M33.4794 29.8294C33.4794 29.6955 33.4261 29.5669 33.3314 29.4722C33.2366 29.3774 33.1081 29.3242 32.9741 29.3242H26.4687C26.3347 29.3242 26.2062 29.3774 26.1115 29.4722C26.0167 29.5669 25.9635 29.6954 25.9635 29.8294C25.9635 29.9634 26.0167 30.092 26.1115 30.1867C26.2062 30.2815 26.3347 30.3347 26.4687 30.3347H32.9741C33.1081 30.3347 33.2366 30.2815 33.3314 30.1867C33.4261 30.092 33.4794 29.9634 33.4794 29.8294Z" fill="url(#paint6_linear)" stroke="#FFBB89" stroke-width="0.23"/>
<path d="M38.9809 32.8375H36.2347C36.1007 32.8375 35.9722 32.8907 35.8774 32.9855C35.7827 33.0802 35.7294 33.2088 35.7294 33.3428C35.7294 33.4768 35.7827 33.6053 35.8774 33.7C35.9722 33.7948 36.1007 33.848 36.2347 33.848H38.9809C39.1149 33.848 39.2434 33.7948 39.3382 33.7C39.4329 33.6053 39.4861 33.4768 39.4861 33.3428C39.4861 33.2088 39.4329 33.0802 39.3382 32.9855C39.2434 32.8907 39.1149 32.8375 38.9809 32.8375Z" fill="url(#paint7_linear)" stroke="#FFBB89" stroke-width="0.23"/>
<path d="M31.3239 32.8375C31.1899 32.8375 31.0614 32.8907 30.9666 32.9855C30.8719 33.0802 30.8186 33.2088 30.8186 33.3428C30.8186 33.4768 30.8719 33.6053 30.9666 33.7C31.0614 33.7948 31.1899 33.848 31.3239 33.848H34.836C34.97 33.848 35.0985 33.7948 35.1933 33.7C35.288 33.6053 35.3412 33.4768 35.3412 33.3428C35.3412 33.2088 35.288 33.0802 35.1933 32.9855C35.0985 32.8907 34.97 32.8375 34.836 32.8375H31.3239Z" fill="url(#paint8_linear)" stroke="#FFBB89" stroke-width="0.23"/>
<path d="M38.9814 36.0849H31.2339C31.0999 36.0849 30.9714 36.1381 30.8766 36.2329C30.7819 36.3276 30.7286 36.4561 30.7286 36.5901C30.7286 36.7241 30.7819 36.8526 30.8766 36.9474C30.9714 37.0421 31.0999 37.0954 31.2339 37.0954H38.9814C39.1154 37.0954 39.2439 37.0421 39.3387 36.9474C39.4334 36.8526 39.4866 36.7241 39.4866 36.5901C39.4866 36.4561 39.4334 36.3276 39.3387 36.2329C39.2439 36.1381 39.1154 36.0849 38.9814 36.0849Z" fill="url(#paint9_linear)" stroke="#FFBB89" stroke-width="0.23"/>
<path d="M25.6817 36.1131C25.5651 36.1066 25.4503 36.1408 25.3566 36.209H25.3517L25.3187 36.2392L21.4969 39.74L19.6244 37.7095C19.5798 37.6599 19.5259 37.6197 19.4657 37.5911C19.4052 37.5624 19.3397 37.5459 19.2728 37.5427C19.2059 37.5396 19.1391 37.5497 19.0762 37.5726C19.0133 37.5955 18.9555 37.6306 18.9063 37.676C18.8571 37.7214 18.8174 37.7761 18.7895 37.8369C18.7616 37.8978 18.7461 37.9636 18.7439 38.0305C18.7416 38.0974 18.7527 38.1641 18.7764 38.2267C18.8001 38.289 18.8358 38.346 18.8816 38.3944L21.0954 40.795C21.186 40.8933 21.3119 40.9517 21.4455 40.9574C21.5791 40.963 21.7095 40.9155 21.8081 40.8252L21.8081 40.8252L26.0012 36.9844L26.0012 36.9845L26.003 36.9828C26.0985 36.8915 26.1544 36.7664 26.1589 36.6344C26.1633 36.5024 26.1158 36.3739 26.0266 36.2764L25.9418 36.3541L26.0266 36.2764C25.9374 36.179 25.8136 36.1203 25.6817 36.1131Z" fill="url(#paint10_linear)" stroke="#FFBB89" stroke-width="0.23"/>
<defs>
<linearGradient id="paint0_linear" x1="29.7793" y1="16" x2="29.7793" y2="48" gradientUnits="userSpaceOnUse">
<stop stop-color="#F58634"/>
<stop offset="1" stop-color="#A8518A" stop-opacity="0.63"/>
</linearGradient>
<linearGradient id="paint1_linear" x1="38.7503" y1="26.1318" x2="38.7503" y2="26.9123" gradientUnits="userSpaceOnUse">
<stop stop-color="#F58634"/>
<stop offset="1" stop-color="#A8518A" stop-opacity="0.63"/>
</linearGradient>
<linearGradient id="paint2_linear" x1="34.0284" y1="26.1318" x2="34.0284" y2="26.9123" gradientUnits="userSpaceOnUse">
<stop stop-color="#F58634"/>
<stop offset="1" stop-color="#A8518A" stop-opacity="0.63"/>
</linearGradient>
<linearGradient id="paint3_linear" x1="27.6637" y1="26.1318" x2="27.6637" y2="26.9123" gradientUnits="userSpaceOnUse">
<stop stop-color="#F58634"/>
<stop offset="1" stop-color="#A8518A" stop-opacity="0.63"/>
</linearGradient>
<linearGradient id="paint4_linear" x1="38.3347" y1="29.4392" x2="38.3347" y2="30.2197" gradientUnits="userSpaceOnUse">
<stop stop-color="#F58634"/>
<stop offset="1" stop-color="#A8518A" stop-opacity="0.63"/>
</linearGradient>
<linearGradient id="paint5_linear" x1="35.4089" y1="29.4392" x2="35.4089" y2="30.2197" gradientUnits="userSpaceOnUse">
<stop stop-color="#F58634"/>
<stop offset="1" stop-color="#A8518A" stop-opacity="0.63"/>
</linearGradient>
<linearGradient id="paint6_linear" x1="29.7214" y1="29.4392" x2="29.7214" y2="30.2197" gradientUnits="userSpaceOnUse">
<stop stop-color="#F58634"/>
<stop offset="1" stop-color="#A8518A" stop-opacity="0.63"/>
</linearGradient>
<linearGradient id="paint7_linear" x1="37.6078" y1="32.9525" x2="37.6078" y2="33.733" gradientUnits="userSpaceOnUse">
<stop stop-color="#F58634"/>
<stop offset="1" stop-color="#A8518A" stop-opacity="0.63"/>
</linearGradient>
<linearGradient id="paint8_linear" x1="33.0799" y1="32.9525" x2="33.0799" y2="33.733" gradientUnits="userSpaceOnUse">
<stop stop-color="#F58634"/>
<stop offset="1" stop-color="#A8518A" stop-opacity="0.63"/>
</linearGradient>
<linearGradient id="paint9_linear" x1="35.1076" y1="36.1999" x2="35.1076" y2="36.9804" gradientUnits="userSpaceOnUse">
<stop stop-color="#F58634"/>
<stop offset="1" stop-color="#A8518A" stop-opacity="0.63"/>
</linearGradient>
<linearGradient id="paint10_linear" x1="22.4514" y1="36.2273" x2="22.4514" y2="40.8428" gradientUnits="userSpaceOnUse">
<stop stop-color="#F58634"/>
<stop offset="1" stop-color="#A8518A" stop-opacity="0.63"/>
</linearGradient>
</defs>
</svg>
