<?xml version="1.0" encoding="UTF-8" ?>
<svg width="284" height="200" viewBox="0 0 284 200" fill="none" xmlns="http://www.w3.org/2000/svg">
<mask id="mask0" mask-type="alpha" maskUnits="userSpaceOnUse" x="0" y="0" width="284" height="200">
<path d="M0 4C0 1.79086 1.79086 0 4 0H280C282.209 0 284 1.79086 284 4V196C284 198.209 282.209 200 280 200H4C1.79086 200 0 198.209 0 196V4Z" fill="white"/>
</mask>
<g mask="url(#mask0)">
<path d="M4 -0.5C1.51472 -0.5 -0.5 1.51471 -0.5 4V196C-0.5 198.485 1.51472 200.5 4 200.5H280C282.485 200.5 284.5 198.485 284.5 196V4C284.5 1.51472 282.485 -0.5 280 -0.5H4Z" fill="white" stroke="black"/>
<path d="M254.5 80.5267C252.852 80.5267 251.526 81.8541 251.526 83.4999C251.526 85.0318 252.679 86.3065 254.202 86.4577C255.966 86.6327 257.473 85.2591 257.473 83.4999C257.473 81.8517 256.146 80.5267 254.5 80.5267Z" fill="#FAF4F8"/>
<path d="M314.024 86.4762C305.818 86.4762 299.143 79.8006 299.143 71.5952C299.143 69.9518 297.81 68.619 296.167 68.619H212.833C211.19 68.619 209.857 69.9518 209.857 71.5952C209.857 79.8006 203.182 86.4762 194.976 86.4762C193.333 86.4762 192 87.8089 192 89.4524V138.021C192 175.871 216.671 209.787 253.645 220.875C253.924 220.958 254.212 221 254.5 221C254.788 221 255.076 220.958 255.355 220.874C291.528 210.024 317 176.699 317 138.021V89.4524C317 87.8089 315.667 86.4762 314.024 86.4762ZM311.048 138.021C311.048 173.571 288.363 204.358 254.5 214.912C220.907 204.442 197.952 173.376 197.952 138.021V92.2167C207.063 90.9077 214.289 83.6818 215.598 74.5714H293.402C294.711 83.6818 301.937 90.9077 311.048 92.2167V138.021Z" fill="#FAF4F8"/>
<path d="M303.313 96.1458C297.107 93.4277 292.191 88.5125 289.473 82.3059C288.999 81.2232 287.929 80.5238 286.747 80.5238H266.399C264.755 80.5238 263.423 81.8565 263.423 83.5C263.423 85.1434 264.755 86.4762 266.399 86.4762H284.865C288.01 92.6312 292.988 97.6092 299.143 100.754V138.021C299.143 167.147 281.658 192.278 254.5 202.338C227.342 192.277 209.857 167.147 209.857 138.021V100.754C216.012 97.6092 220.99 92.6312 224.135 86.4762H242.601C244.245 86.4762 245.577 85.1434 245.577 83.5C245.577 81.8565 244.245 80.5238 242.601 80.5238H222.253C221.071 80.5238 220.001 81.2235 219.527 82.3059C216.809 88.5125 211.893 93.4277 205.687 96.1458C204.604 96.6202 203.905 97.6902 203.905 98.872V138.021C203.905 169.929 223.64 197.739 253.507 208.308C253.828 208.422 254.164 208.479 254.5 208.479C254.836 208.479 255.172 208.422 255.493 208.308C285.335 197.748 305.095 169.955 305.095 138.021V98.872C305.095 97.6899 304.396 96.6202 303.313 96.1458Z" fill="#FAF4F8"/>
<path d="M254.5 112.071C239.73 112.071 227.714 124.087 227.714 138.857C227.714 153.627 239.73 165.643 254.5 165.643C269.27 165.643 281.286 153.627 281.286 138.857C281.286 124.087 269.27 112.071 254.5 112.071ZM254.5 159.69C243.013 159.69 233.667 150.345 233.667 138.857C233.667 127.37 243.013 118.024 254.5 118.024C265.988 118.024 275.333 127.37 275.333 138.857C275.333 150.345 265.988 159.69 254.5 159.69Z" fill="#FAF4F8"/>
<path d="M268.509 130.8C267.347 129.638 265.463 129.638 264.3 130.8L251.524 143.576L247.676 139.729C246.514 138.567 244.63 138.567 243.467 139.729C242.305 140.891 242.305 142.776 243.467 143.938L249.419 149.89C250.001 150.471 250.762 150.762 251.524 150.762C252.286 150.762 253.047 150.471 253.628 149.89L268.509 135.009C269.672 133.847 269.672 131.962 268.509 130.8Z" fill="#FAF4F8"/>
</g>
</svg>
