<?xml version="1.0" encoding="UTF-8" ?>
<svg width="284" height="200" viewBox="0 0 284 200" fill="none" xmlns="http://www.w3.org/2000/svg">
<mask id="mask0" mask-type="alpha" maskUnits="userSpaceOnUse" x="0" y="0" width="284" height="200">
<path d="M0 4C0 1.79086 1.79086 0 4 0H280C282.209 0 284 1.79086 284 4V196C284 198.209 282.209 200 280 200H4C1.79086 200 0 198.209 0 196V4Z" fill="white"/>
</mask>
<g mask="url(#mask0)">
<path d="M4 -0.5C1.51472 -0.5 -0.5 1.51471 -0.5 4V196C-0.5 198.485 1.51472 200.5 4 200.5H280C282.485 200.5 284.5 198.485 284.5 196V4C284.5 1.51472 282.485 -0.5 280 -0.5H4Z" fill="white" stroke="black"/>
<path d="M352.085 142.829H369.617C367.147 160.389 358.347 176.445 344.867 187.973L344.867 187.973C332.082 198.935 316.026 205.218 300.82 205.218C290.903 205.218 280.53 202.545 270.824 197.484C260.745 192.221 252.003 184.722 245.267 175.562C245.075 175.3 244.834 175.08 244.558 174.911C244.281 174.743 243.974 174.631 243.654 174.582C243.334 174.532 243.007 174.546 242.692 174.623C242.378 174.7 242.081 174.838 241.82 175.029C241.559 175.221 241.338 175.462 241.169 175.739C241.001 176.015 240.889 176.322 240.84 176.643C240.79 176.963 240.804 177.289 240.881 177.604C240.958 177.919 241.096 178.215 241.287 178.476L241.288 178.476C248.471 188.246 257.795 196.244 268.544 201.857L268.544 201.857C278.946 207.281 290.107 210.15 300.82 210.15C317.195 210.15 334.417 203.429 348.076 191.717C362.649 179.253 372.093 161.838 374.592 142.829H393.593C394.038 142.829 394.474 142.708 394.856 142.481C395.238 142.253 395.552 141.926 395.763 141.535C395.974 141.143 396.076 140.702 396.057 140.258C396.038 139.813 395.899 139.382 395.655 139.011L395.53 139.093L395.655 139.01L374.901 107.366C374.677 107.024 374.371 106.743 374.011 106.548C373.651 106.354 373.248 106.252 372.839 106.252C372.43 106.252 372.027 106.354 371.667 106.548L371.738 106.68L371.667 106.548C371.307 106.743 371.001 107.024 370.777 107.366L350.022 139.01L350.148 139.093L350.022 139.011C349.778 139.382 349.64 139.813 349.621 140.258C349.602 140.702 349.704 141.143 349.915 141.534C350.126 141.926 350.439 142.253 350.821 142.48C351.203 142.708 351.64 142.829 352.085 142.829ZM356.651 137.894L372.839 113.212L389.027 137.894H356.651Z" fill="#FAF4F8" stroke="#FAF4F8" stroke-width="0.3"/>
<path d="M249.825 117.171H232.293C234.762 99.6109 243.563 83.5553 257.043 72.0272L257.043 72.0271C269.827 61.0651 285.883 54.7819 301.089 54.7819C311.006 54.7819 321.379 57.4552 331.085 62.516C341.164 67.7793 349.906 75.2779 356.643 84.4383C357.029 84.9659 357.609 85.3183 358.256 85.4182C358.902 85.518 359.562 85.357 360.089 84.9705C360.617 84.5841 360.969 84.0038 361.069 83.3574C361.169 82.711 361.008 82.0515 360.622 81.5238L360.622 81.5235C353.438 71.7538 344.115 63.7564 333.365 58.1431L333.365 58.1431C322.963 52.7187 311.802 49.85 301.089 49.85C284.714 49.85 267.492 56.5708 253.833 68.2829C239.26 80.747 229.816 98.1618 227.317 117.171H208.316C207.871 117.171 207.435 117.292 207.053 117.519C206.671 117.747 206.358 118.074 206.146 118.465C205.935 118.857 205.833 119.298 205.852 119.742C205.871 120.187 206.01 120.618 206.254 120.989L227.008 152.634C227.233 152.976 227.539 153.257 227.899 153.452C228.259 153.646 228.661 153.748 229.07 153.748C229.48 153.748 229.882 153.646 230.242 153.452C230.602 153.257 230.908 152.976 231.133 152.634L251.887 120.989C252.131 120.618 252.27 120.187 252.289 119.742C252.307 119.298 252.206 118.857 251.994 118.465C251.783 118.074 251.47 117.747 251.088 117.519C250.706 117.292 250.269 117.171 249.825 117.171ZM212.882 122.103H245.258L229.071 146.787L212.882 122.103Z" fill="#FAF4F8" stroke="#FAF4F8" stroke-width="0.3"/>
<path d="M343.095 96.3923L343.095 96.3922L302.043 76.2303L302.043 76.2302C301.705 76.0644 301.333 75.9782 300.957 75.9782C300.58 75.9782 300.209 76.0644 299.871 76.2302L258.821 96.3335C258.406 96.5364 258.057 96.8515 257.813 97.243C257.569 97.6346 257.439 98.0868 257.439 98.5483V137.013C257.439 142.026 259.062 147.593 261.714 152.609C264.366 157.625 268.055 162.102 272.199 164.928L299.566 183.593C299.975 183.872 300.46 184.021 300.955 184.021C301.451 184.021 301.935 183.872 302.345 183.593L329.712 164.928C333.857 162.102 337.545 157.625 340.198 152.609C342.85 147.593 344.472 142.026 344.472 137.013V98.6066C344.473 98.1457 344.344 97.6939 344.1 97.3024C343.857 96.911 343.508 96.5957 343.095 96.3923ZM274.978 160.852L274.893 160.976L274.978 160.852C271.569 158.529 268.416 154.636 266.114 150.283C263.812 145.931 262.371 141.135 262.371 137.013V100.086L300.955 81.1901L339.54 100.142V137.013C339.54 141.207 338.128 145.983 335.841 150.307C333.555 154.631 330.401 158.489 326.933 160.854L300.955 178.569L274.978 160.852Z" fill="#FAF4F8" stroke="#FAF4F8" stroke-width="0.3"/>
<path d="M294.262 142.669L294.367 142.561L294.262 142.669C294.722 143.118 295.341 143.37 295.984 143.37C296.628 143.37 297.246 143.118 297.707 142.669L297.602 142.561L297.707 142.669L320.045 120.861C320.045 120.861 320.046 120.861 320.046 120.861C320.282 120.636 320.471 120.366 320.602 120.068C320.734 119.769 320.804 119.447 320.81 119.121C320.816 118.794 320.757 118.47 320.637 118.166C320.517 117.863 320.337 117.586 320.109 117.353C319.881 117.119 319.609 116.933 319.309 116.806C319.008 116.678 318.685 116.611 318.359 116.609C318.032 116.608 317.709 116.671 317.407 116.795C317.105 116.919 316.831 117.101 316.601 117.332C316.601 117.332 316.6 117.332 316.6 117.333L295.984 137.46L285.307 127.036L285.307 127.036L285.306 127.034C284.836 126.587 284.209 126.343 283.56 126.355C282.912 126.367 282.294 126.633 281.841 127.098C281.388 127.562 281.136 128.186 281.139 128.834C281.143 129.483 281.402 130.104 281.861 130.563L281.862 130.564L294.262 142.669Z" fill="#FAF4F8" stroke="#FAF4F8" stroke-width="0.3"/>
</g>
</svg>
