<?xml version="1.0" encoding="UTF-8" ?>
<svg width="36" height="36" viewBox="0 0 36 36" fill="none" xmlns="http://www.w3.org/2000/svg">
<path fill-rule="evenodd" clip-rule="evenodd" d="M10.3068 12.2425C13.1677 13.2481 15.7878 14.8394 18 16.915C20.2123 14.8394 22.8324 13.2481 25.6933 12.2425C24.8237 7.8968 22.6092 3.93539 19.3638 0.920019C19.0703 0.645121 18.6818 0.494609 18.2798 0.500019H17.7203C17.3183 0.494609 16.9298 0.645121 16.6362 0.920019C13.3909 3.93539 11.1764 7.8968 10.3068 12.2425ZM34.7154 14.9375L35.0476 15.2875C35.3254 15.5301 35.4848 15.8811 35.4848 16.25C35.8918 26.3709 28.1049 34.9439 18 35.5C7.8951 34.9439 0.108199 26.3709 0.515274 16.25C0.514535 15.8722 0.680986 15.5133 0.969877 15.27L1.30209 14.92C1.5527 14.6556 1.89964 14.5041 2.26375 14.5C7.42343 14.2956 12.4329 16.2631 16.0767 19.925C16.7753 20.6452 17.4183 21.4174 18 22.235C18.5817 21.4174 19.2247 20.6452 19.9233 19.925C23.5672 16.2631 28.5766 14.2956 33.7363 14.5C34.1091 14.5039 34.4637 14.6623 34.7154 14.9375Z" fill="url(#paint0_linear)"/>
<defs>
<linearGradient id="paint0_linear" x1="18" y1="0.499878" x2="18" y2="35.5" gradientUnits="userSpaceOnUse">
<stop stop-color="#F58634"/>
<stop offset="1" stop-color="#A8518A" stop-opacity="0.63"/>
</linearGradient>
</defs>
</svg>